<svg width="162" height="159" viewBox="0 0 162 159" fill="none" xmlns="http://www.w3.org/2000/svg">
<g filter="url(#filter0_d_258_44)">
<rect x="47.6661" y="21.4395" width="110" height="75" rx="23" transform="rotate(26.1451 47.6661 21.4395)" fill="white"/>
</g>
<path d="M83.5514 62.7002C81.2668 59.8103 77.4384 57.0645 71.8664 54.298C71.3432 54.0322 70.7515 53.9323 70.1701 54.0115C69.6922 54.0779 69.238 54.2606 68.8473 54.5437C68.4567 54.8269 68.1415 55.2016 67.9297 55.6351L56.3277 79.2655C55.5434 80.8629 56.0883 82.626 57.5948 83.3656C63.4648 86.2477 69.0837 89.6871 70.9739 94.7522C70.9996 94.8217 71.0452 94.8821 71.105 94.9259C71.1648 94.9697 71.2362 94.9949 71.3102 94.9985C71.3842 95.0021 71.4577 94.9839 71.5214 94.946C71.5852 94.9082 71.6364 94.8525 71.6687 94.7858L85.3393 66.9422C85.4317 66.7545 85.4827 66.549 85.4888 66.3398C85.495 66.1307 85.4561 65.9226 85.375 65.7297C84.9062 64.6424 84.2928 63.6234 83.5514 62.7002ZM107.491 72.3322C107.198 71.8244 106.756 71.4181 106.226 71.1677C100.629 68.4508 96.1174 67.0975 92.4321 67.0604C91.2487 67.0376 90.0677 67.1742 88.9207 67.4665C88.7187 67.5206 88.5305 67.6173 88.369 67.7501C88.2074 67.883 88.0761 68.0488 87.984 68.2366L74.3126 96.0819C74.2812 96.1458 74.2693 96.2175 74.2785 96.2882C74.2877 96.3588 74.3176 96.4251 74.3643 96.4788C74.4111 96.5326 74.4727 96.5713 74.5413 96.5901C74.61 96.609 74.6827 96.6072 74.7504 96.5848C77.9047 95.5196 82.4901 95.5856 91.9584 100.235C92.6594 100.58 93.4684 100.631 94.2074 100.379C94.9464 100.127 95.555 99.591 95.8991 98.89L107.578 75.1026C107.792 74.6692 107.896 74.1897 107.881 73.7065C107.866 73.2233 107.732 72.7513 107.491 72.3322Z" fill="#2563EB"/>
<defs>
<filter id="filter0_d_258_44" x="12.394" y="19.2158" width="136.241" height="120.244" filterUnits="userSpaceOnUse" color-interpolation-filters="sRGB">
<feFlood flood-opacity="0" result="BackgroundImageFix"/>
<feColorMatrix in="SourceAlpha" type="matrix" values="0 0 0 0 0 0 0 0 0 0 0 0 0 0 0 0 0 0 127 0" result="hardAlpha"/>
<feOffset/>
<feGaussianBlur stdDeviation="5"/>
<feComposite in2="hardAlpha" operator="out"/>
<feColorMatrix type="matrix" values="0 0 0 0 0.145098 0 0 0 0 0.388235 0 0 0 0 0.921569 0 0 0 0.25 0"/>
<feBlend mode="normal" in2="BackgroundImageFix" result="effect1_dropShadow_258_44"/>
<feBlend mode="normal" in="SourceGraphic" in2="effect1_dropShadow_258_44" result="shape"/>
</filter>
</defs>
</svg>
