<svg width="66" height="66" viewBox="0 0 66 66" fill="none" xmlns="http://www.w3.org/2000/svg">
<circle cx="33" cy="33" r="30" stroke="#D5E2FF" stroke-width="6"/>
<path d="M33 63C49.5685 63 63 49.5685 63 33C63 16.4315 49.5685 3 33 3" stroke="#2563EB" stroke-width="6" stroke-linecap="round" stroke-linejoin="round"/>
<path d="M22.1581 26.7325C21.6943 26.1262 21.0624 25.6732 20.3431 25.4312L18.4873 24.822C18.3448 24.7707 18.2214 24.6761 18.1341 24.5511C18.0468 24.426 18 24.2768 18 24.1238C18 23.9708 18.0468 23.8216 18.1341 23.6965C18.2214 23.5715 18.3448 23.4769 18.4873 23.4256L20.3431 22.8164C20.8926 22.6247 21.3917 22.3088 21.8024 21.8928C22.213 21.4768 22.5245 20.9716 22.713 20.4157L22.7287 20.3695L23.332 18.4951C23.3823 18.3504 23.4758 18.225 23.5996 18.1363C23.7234 18.0476 23.8714 18 24.0231 18C24.1748 18 24.3228 18.0476 24.4466 18.1363C24.5704 18.225 24.6639 18.3504 24.7142 18.4951L25.3175 20.3695C25.5051 20.9398 25.8218 21.458 26.2424 21.8828C26.663 22.3076 27.1759 22.6273 27.7402 22.8164L29.5966 23.4256L29.6337 23.4349C29.7763 23.4862 29.8997 23.5809 29.987 23.7059C30.0742 23.8309 30.1211 23.9802 30.1211 24.1332C30.1211 24.2862 30.0742 24.4354 29.987 24.5604C29.8997 24.6854 29.7763 24.7801 29.6337 24.8314L27.7773 25.4406C27.2132 25.6301 26.7006 25.9499 26.2802 26.3746C25.8598 26.7994 25.5431 27.3173 25.3553 27.8874L24.752 29.7619C24.7144 29.87 24.6524 29.9678 24.571 30.0477C24.4896 30.1275 24.391 30.1871 24.283 30.2218C24.1749 30.2566 24.0603 30.2655 23.9483 30.2478C23.8362 30.2302 23.7298 30.1865 23.6373 30.1202C23.5136 30.0316 23.4201 29.9064 23.3698 29.7619L22.7665 27.8874C22.6304 27.4703 22.4242 27.0797 22.1581 26.7325ZM32.6961 31.6868L31.7134 31.3638C31.4148 31.2635 31.1435 31.0943 30.9209 30.8695C30.6983 30.6448 30.5306 30.3707 30.4311 30.069L30.1123 29.0763C30.0857 28.9995 30.0362 28.933 29.9706 28.8859C29.905 28.8388 29.8265 28.8135 29.7461 28.8135C29.6656 28.8135 29.5871 28.8388 29.5215 28.8859C29.4559 28.933 29.4064 28.9995 29.3798 29.0763L29.0603 30.069C28.963 30.3686 28.7984 30.6414 28.5794 30.8661C28.3604 31.0907 28.093 31.261 27.798 31.3638L26.8152 31.6868C26.7401 31.7142 26.6752 31.7644 26.6293 31.8306C26.5834 31.8967 26.5587 31.9755 26.5587 32.0562C26.5587 32.137 26.5834 32.2158 26.6293 32.2819C26.6752 32.348 26.7401 32.3982 26.8152 32.4257L27.798 32.7487C27.9057 32.7847 28.0105 32.8302 28.1104 32.8842L28.1125 32.895C28.5704 33.1421 28.9169 33.5577 29.0803 34.0558L29.3998 35.0485C29.426 35.1222 29.4734 35.1863 29.5359 35.2326C29.5984 35.2788 29.6732 35.3052 29.7506 35.3082C29.828 35.3112 29.9045 35.2908 29.9704 35.2495C30.0362 35.2082 30.0884 35.148 30.1201 35.0766V35.0694C30.1243 35.0602 30.1281 35.0508 30.1315 35.0413L30.451 34.0485C30.5505 33.7468 30.7182 33.4727 30.9407 33.2479C31.1633 33.0231 31.4347 32.8539 31.7333 32.7537L32.7161 32.4308C32.7913 32.4033 32.8562 32.3531 32.9021 32.287C32.948 32.2209 32.9726 32.1421 32.9726 32.0613C32.9726 31.9805 32.948 31.9017 32.9021 31.8356C32.8562 31.7695 32.7913 31.7193 32.7161 31.6918L32.6961 31.6868ZM34.0662 30.9774C33.8496 30.6674 33.543 30.4331 33.189 30.3069H33.0891L32.1548 29.9969C32.0694 29.9695 31.9913 29.9227 31.9266 29.8599C31.8634 29.7914 31.8148 29.7104 31.784 29.622L31.7469 29.5038L39.542 21.624C39.997 21.1508 40.5405 20.7739 41.1409 20.5149C41.7412 20.256 42.3865 20.1202 43.0393 20.1156C43.692 20.1109 44.3391 20.2374 44.943 20.4878C45.547 20.7381 46.0957 21.1073 46.5572 21.5739C47.0188 22.0405 47.384 22.5951 47.6317 23.2056C47.8793 23.8161 48.0045 24.4703 47.9999 25.1301C47.9953 25.7899 47.861 26.4422 47.6048 27.0491C47.3487 27.656 46.9757 28.2054 46.5077 28.6653L44.9144 30.2766L45.5813 30.9961C46.1196 31.5764 46.4134 32.3456 46.4008 33.1411C46.3882 33.9365 46.07 34.6957 45.5135 35.2583L43.0559 37.7426C42.8887 37.9116 42.6619 38.0066 42.4254 38.0066C42.189 38.0066 41.9622 37.9116 41.795 37.7426C41.6278 37.5736 41.5338 37.3443 41.5338 37.1053C41.5338 36.8663 41.6278 36.637 41.795 36.468L44.2526 33.9837C44.4817 33.7521 44.6128 33.4396 44.6182 33.1121C44.6235 32.7847 44.5026 32.4679 44.2811 32.2289L43.6528 31.5512L29.2714 46.091C28.7279 46.6408 28.048 47.0325 27.303 47.2251L20.537 48.9719C20.3871 49.0106 20.2299 49.0093 20.0806 48.968C19.9314 48.9267 19.7954 48.8468 19.6859 48.7363C19.5765 48.6257 19.4974 48.4883 19.4564 48.3374C19.4155 48.1866 19.414 48.0276 19.4523 47.8761L21.1832 41.0373C21.3738 40.2849 21.761 39.5981 22.3043 39.0489L27.2695 34.0284L27.3758 34.0637L27.4614 34.1069C27.596 34.1821 27.6978 34.3056 27.7466 34.453L28.0604 35.4407C28.1615 35.8263 28.3844 36.1681 28.6952 36.4139C28.915 36.5705 29.1664 36.6759 29.4313 36.7225C29.6963 36.7691 29.9681 36.7557 30.2273 36.6833C30.4865 36.6109 30.7266 36.4813 30.9303 36.3038C31.134 36.1264 31.2962 35.9054 31.4053 35.6569L31.5337 35.3542V35.303L31.7833 34.5172C31.8153 34.4315 31.8637 34.3531 31.9259 34.2865C31.9925 34.221 32.073 34.1717 32.1613 34.1423L33.1312 33.8251C33.5019 33.7065 33.8252 33.4711 34.0538 33.1532C34.2824 32.8353 34.4042 32.4518 34.4014 32.0588C34.4066 31.6714 34.2891 31.2925 34.0662 30.9774Z" fill="#2563EB"/>
</svg>
