<svg width="125" height="34" viewBox="0 0 125 34" fill="none" xmlns="http://www.w3.org/2000/svg">
<g opacity="0.9">
<path fill-rule="evenodd" clip-rule="evenodd" d="M89.5855 15.5453H92.6303C94.6497 15.5453 96.2524 16.6368 96.733 18.1913C97.1494 19.4482 96.9249 21.5649 96.4769 22.3257C95.3227 24.2771 93.3676 24.8394 90.515 24.8394C88.3368 24.8394 87.1322 24.5678 85.9236 24.2954C85.7985 24.2671 85.6733 24.2389 85.5468 24.211V21.4657C86.861 22.1273 89.2008 22.3588 90.8996 22.3257C92.5023 22.3257 94.169 21.8626 94.169 20.2089C94.169 19.4482 94.0086 18.1913 92.1176 18.1913H88.8483C87.3418 18.1913 85.8354 17.2653 85.3226 16.306C84.97 15.6115 84.8418 14.6192 84.8418 13.9246C84.8418 13.8189 84.8389 13.7208 84.836 13.6254C84.8199 13.094 84.8063 12.6447 85.3226 11.411C85.9636 9.92253 88.6239 8.93028 91.2842 8.89722C93.3356 8.89722 95.2908 9.39334 96.2524 9.79022V12.4363C95.1625 11.8078 92.4061 11.3778 90.4189 11.5432C89.0085 11.6425 87.6623 12.2378 87.6303 13.6601C87.6303 15.2807 88.4636 15.5453 89.5855 15.5453ZM46.7639 11.5433C46.7639 10.7495 47.1484 9.88947 47.7254 9.52571C48.3023 9.1619 48.7832 9.12884 49.5524 9.12884V24.8064H46.7639L38.2701 13.3955V24.8064H35.6097V11.7748C35.6097 10.6503 35.8662 10.0548 36.3469 9.65802C36.7315 9.32727 37.661 9.02959 38.3982 9.02959C38.4624 9.12884 46.7639 20.1758 46.7639 20.1758V11.5433ZM80.5145 9.52571C79.9698 9.95571 79.6492 10.4849 79.6492 11.0141V13.7593C77.7581 12.8333 74.6812 13.0978 73.2068 14.3878C71.9888 15.4462 71.6362 17.2984 71.6362 18.7867C71.6362 20.0767 71.8605 21.102 72.2452 22.0281C73.2387 24.3433 75.4824 24.6741 77.5979 24.6741C78.8479 24.6741 80.5145 24.5418 82.4377 24.0457V9.02959C81.7647 9.02959 81.0275 9.12884 80.5145 9.52571ZM79.6492 21.9288C78.1748 22.2927 77.5658 22.2927 76.989 22.2927C74.4568 22.2927 74.4247 19.5475 74.4247 18.919C74.4247 16.6037 75.226 15.6777 77.0851 15.6777C78.2709 15.6777 78.9441 15.8761 79.6492 16.3062V21.9288ZM99.9383 11.7748C100.419 11.4772 100.9 11.2787 101.509 11.2787H101.541V13.2632H104.105V15.5123H101.798C101.798 15.5123 101.926 19.1505 101.926 21.3996C101.926 21.7304 102.022 21.9289 102.278 22.1604C102.631 22.4581 104.105 22.425 104.105 22.425V24.8064H101.541C100.163 24.8064 98.9772 23.2519 98.9772 22.5573V13.7923C98.9772 12.8002 99.4578 12.0725 99.9383 11.7748ZM62.0527 15.1486C60.7065 13.2963 58.4629 13.131 57.2129 13.131C55.9628 13.131 54.0076 13.6932 53.2063 14.5201C52.405 15.347 51.764 16.67 51.764 18.9191C51.764 21.8297 52.437 22.855 54.0718 24.0457C54.9692 24.7072 55.7063 24.8065 57.5975 24.8065C58.8796 24.8065 59.7449 24.608 60.5142 24.178C61.9886 23.3512 63.0784 22.1273 63.0784 18.6545C63.0143 17.0338 62.7578 16.1077 62.0527 15.1486ZM59.6168 21.3005C59.1681 22.1273 58.3987 22.5574 57.4371 22.5574C56.4757 22.5574 55.7063 22.2597 55.3858 21.7966C55.3473 21.7462 55.3096 21.6982 55.2729 21.6513C54.8508 21.1139 54.5525 20.734 54.5525 18.7868C54.5525 17.563 54.7768 16.9677 55.1615 16.4054C55.7385 15.5124 56.5718 15.4131 57.341 15.4131C58.1743 15.4131 58.8154 15.7108 59.2961 16.0416C59.9372 16.4715 60.1616 17.8938 60.1616 19.1837C60.0976 20.209 59.9053 20.7713 59.6168 21.3005ZM109.009 13.2631C111.317 12.9985 114.169 13.4285 115.323 15.016C115.515 15.2807 115.932 16.0083 115.9 16.7691V24.7402H114.458C114.458 24.7402 113.752 24.211 113.239 23.8802C112.791 24.1448 112.118 24.3764 111.67 24.5086C109.137 25.2032 106.253 24.244 105.836 22.3918C105.643 21.6311 105.579 20.7712 105.708 20.275C106.445 17.3975 109.458 17.3314 113.111 17.8936V16.6368C111.819 14.8145 108.571 15.5535 106.665 15.9872L106.573 16.0083V13.6269C106.874 13.588 107.092 13.5491 107.332 13.5063C107.705 13.4398 108.132 13.3637 109.009 13.2631ZM109.169 22.2927C110.13 22.8219 112.406 22.061 113.047 21.6642V20.0435C111.893 19.845 109.265 19.5142 108.689 20.4074C108.304 21.0027 108.689 22.028 109.169 22.2927ZM121.157 14.6524V13.2633C121.099 13.2633 121.044 13.263 120.991 13.2627C120.484 13.26 120.167 13.2583 119.586 13.5278C118.945 13.7925 118.496 15.1154 118.496 16.0415V24.8065H121.413V17.0338C121.798 16.273 123.336 15.4793 124.202 15.5454V13.2963C122.887 13.2963 121.701 13.8586 121.157 14.6524ZM67.5017 13.2633V14.6524C68.0466 13.8586 69.2646 13.2963 70.5466 13.2963V15.5454C69.6812 15.4793 68.1427 16.273 67.758 17.0338V24.8065H64.8413V16.0415C64.8413 15.1154 65.2901 13.7925 65.9312 13.5278C66.5118 13.2583 66.8293 13.26 67.3366 13.2627C67.3894 13.263 67.4442 13.2633 67.5017 13.2633Z" fill="#292858"/>
<path fill-rule="evenodd" clip-rule="evenodd" d="M28.7827 3.7706C27.2274 4.88268 26.0653 6.47281 24.9581 7.98749C23.1677 10.437 21.5214 12.6893 18.5901 12.4032C18.6528 12.4439 18.7156 12.4854 18.7789 12.5274C19.5911 13.0649 20.4968 13.6644 22.3402 13.2962C25.0967 12.7339 26.7313 11.0472 27.3084 10.154C27.8071 9.42747 27.9835 9.15118 28.2126 8.79256L28.2133 8.79151C28.4848 8.36664 28.8303 7.82561 29.8724 6.28429C31.475 3.90291 32.5008 3.1091 33.8789 2.91066C31.6994 2.05066 29.7442 3.07603 28.7827 3.7706ZM17.0198 15.0161C16.9483 15.0555 16.8758 15.0946 16.8026 15.1341C15.9563 15.5905 15.0109 16.1003 14.3915 17.9267C13.462 20.6719 14.0709 22.9872 14.5197 23.9464C15.321 25.6993 15.0645 25.0379 16.5068 28.18C17.6928 30.7929 17.8531 32.1159 17.3403 33.4389C19.1352 31.8844 19.2634 29.6353 19.1672 28.4446C19.0082 26.5013 18.2568 24.664 17.5411 22.9142C16.3809 20.0775 15.3148 17.4708 17.0198 15.0161ZM15.6184 11.9914C15.6151 12.0743 15.6119 12.1564 15.6094 12.238C14.3999 9.47575 11.6694 9.11841 8.70785 8.73086C6.88208 8.4919 4.96849 8.2415 3.26937 7.40897C2.24364 6.87978 0.384631 5.65597 0 3.27459C0.865362 4.39915 2.05133 4.92834 4.87192 5.15984C6.7868 5.33087 7.3796 5.37088 7.88973 5.40534C8.26759 5.43088 8.60021 5.45333 9.39128 5.52372C10.4169 5.62291 12.6605 6.25134 14.4876 8.43428C15.7005 9.89957 15.6573 10.9986 15.6184 11.9914Z" fill="#292858"/>
<path fill-rule="evenodd" clip-rule="evenodd" d="M17.8851 11.7749C20.4002 12.3264 21.8051 10.8733 22.3419 10.318L22.3724 10.2865C23.7249 8.81979 24.0773 7.30237 24.52 5.39531C24.6299 4.9224 24.7452 4.42551 24.8829 3.89947C24.9661 3.58097 25.0576 3.25179 25.1609 2.91078C25.4493 1.95159 25.8339 1.05853 26.9878 0.165527C23.4857 0.435224 22.503 3.54919 21.5735 6.49474C20.793 8.96773 20.0501 11.322 17.8851 11.7749ZM17.917 14.6855C16.1855 16.6673 16.7114 18.6491 16.9129 19.4084L16.9234 19.4483C17.4825 21.4197 18.6006 22.5174 20.0189 23.9098L20.0196 23.9107C20.5525 24.4336 21.1276 24.9983 21.7313 25.6664C22.4043 26.3941 22.9492 27.2209 23.1415 28.6763C24.6182 25.4135 22.4977 22.9669 20.496 20.6572C18.8046 18.7056 17.1978 16.8516 17.917 14.6855ZM6.69718 10.4395C8.55596 9.88382 10.0287 9.44356 11.9552 9.9226L12.0099 9.93788C12.758 10.1469 14.6675 10.6802 15.4489 13.164C13.9858 11.4579 11.6344 11.9641 9.163 12.4962C6.22042 13.1297 3.10768 13.7998 1.12166 10.8156C2.4358 11.411 3.39737 11.3118 4.35895 11.0803C5.22525 10.8796 5.98926 10.6512 6.69718 10.4395Z" fill="#006BAE"/>
<path fill-rule="evenodd" clip-rule="evenodd" d="M20.5453 6.87963C20.6129 6.12314 20.4901 5.39125 20.3639 4.63925C20.1315 3.25409 19.8876 1.8007 20.8017 0C19.2632 0.926124 18.3658 2.14988 18.3658 4.76282C18.3658 5.54421 18.3838 6.21865 18.3996 6.80878C18.4258 7.79228 18.4459 8.54166 18.3658 9.16182C18.1734 10.5179 17.853 11.0471 17.0196 11.5432C17.5324 11.5101 18.4298 11.1463 18.7183 10.9148C19.6478 10.2202 20.4171 8.20263 20.5453 6.87963ZM23.526 18.6212C22.9304 18.2683 22.3993 17.9703 21.9274 17.7055L21.926 17.7046C21.0276 17.2005 20.3443 16.8171 19.84 16.4051C18.7824 15.5452 18.5259 15.016 18.5259 14.0238C18.3015 14.4868 18.1733 15.4791 18.2054 15.8429C18.3015 17.0006 19.5837 18.7205 20.6414 19.4811C21.243 19.9264 21.9252 20.1848 22.6264 20.4505C23.905 20.9351 25.2475 21.4437 26.2825 23.1525C26.3145 21.3665 25.7056 19.9111 23.526 18.6212ZM10.032 13.23C11.1859 12.6677 13.2693 12.37 14.2951 12.8661C14.6156 13.0315 15.3848 13.6269 15.6733 14.0569C14.8399 13.5938 14.263 13.5277 13.0129 14.0569C12.3887 14.3099 11.687 14.755 10.7352 15.3587C10.3185 15.623 9.85396 15.9176 9.32693 16.2399C7.1795 17.5628 5.67305 17.3644 4.13452 16.4383C6.0852 16.3526 7.18941 15.4074 8.23869 14.5092C8.81016 14.02 9.3653 13.5448 10.032 13.23Z" fill="#0080C3"/>
<path fill-rule="evenodd" clip-rule="evenodd" d="M15.9298 1.75317C15.8756 1.83108 15.8211 1.90753 15.7671 1.98339C14.927 3.16353 14.1908 4.19782 16.0581 8.26899C16.0581 8.26899 17.1799 10.4519 16.0581 11.9072C16.5069 11.7418 16.8915 11.2788 17.1478 10.915C17.4364 10.485 17.9171 9.42662 17.6287 7.90512C17.4493 6.88686 17.0649 6.17527 16.6988 5.49767C16.1494 4.48046 15.6413 3.53976 15.9298 1.75317ZM21.7634 14.8178C21.7634 14.8178 19.3595 14.7185 18.7184 12.9986C18.6223 13.4617 18.8146 14.0571 19.007 14.4871C19.2314 14.9501 19.8723 15.9093 21.2827 16.4384C22.2266 16.7807 23.0132 16.7929 23.7596 16.8045C24.8885 16.822 25.9255 16.8381 27.2763 17.9929C27.2436 17.915 27.2119 17.8374 27.1804 17.7603C26.624 16.3986 26.1316 15.1934 21.7634 14.8178ZM10.7465 17.3753C11.1325 16.7088 11.5377 16.0093 12.3079 15.347C13.4297 14.3548 14.5515 14.2556 15.0644 14.2556C15.481 14.3217 16.0902 14.4209 16.4427 14.7517C14.6798 14.4871 13.3977 16.5708 13.3977 16.5708C10.9002 20.2659 9.64566 20.1131 8.2549 19.9437C8.16428 19.9327 8.07308 19.9216 7.98094 19.9114C9.63341 19.2967 10.1686 18.373 10.7465 17.3753Z" fill="#61BEE7"/>
</g>
</svg>
