<svg width="139" height="22" viewBox="0 0 139 22" fill="none" xmlns="http://www.w3.org/2000/svg">
<g opacity="0.7">
<path d="M15.8563 13.626C15.8563 18.1525 12.5028 21.2756 7.92815 21.2756C3.35143 21.2756 0 18.1525 0 13.626C0 9.09942 3.35344 5.97634 7.92815 5.97634C12.5049 5.97634 15.8563 9.09942 15.8563 13.626ZM46.7547 13.626C46.7547 18.1525 43.4013 21.2756 38.8265 21.2756C34.2518 21.2756 30.8984 18.1525 30.8984 13.626C30.8984 9.09942 34.2518 5.97634 38.8265 5.97634C43.4013 5.97634 46.7547 9.09942 46.7547 13.626ZM62.885 11.9507V20.7782H59.0338V12.7661C59.0338 10.4586 57.9456 9.50613 56.0895 9.50613C54.1407 9.50613 52.7361 10.5915 52.7361 13.7166V20.7782H48.8849V6.42738H52.6917V8.60004H52.7824C53.7337 6.97105 55.366 5.97432 57.4498 5.97432C60.5735 5.97634 62.885 7.69595 62.885 11.9507ZM120.938 6.42738V20.7782H117.087V14.9831H110.924V20.7782H107.073V6.42738H110.924V11.6325H117.087V6.42738H120.938ZM99.9609 6.42738V8.50944H99.8709C99.1917 7.06166 97.3779 5.97432 95.0685 5.97432C91.308 5.97432 88.2262 8.69065 88.2262 13.5797C88.2262 18.515 91.2171 21.2756 95.0685 21.2756C97.4242 21.2756 99.1008 20.1883 99.8709 18.8311H99.9609V20.7782H103.812V6.42738H99.9609ZM79.5746 6.29247C77.2188 6.29247 75.4071 7.37981 74.4558 9.09942H74.3651C74.5001 5.93002 75.5884 4.57286 79.3026 4.21041L85.0562 3.66675V0L78.6678 0.497357C72.4163 0.994716 70.5583 5.25144 70.5583 12.0412C70.5583 18.0619 74.0467 21.2756 78.577 21.2756C83.0631 21.2756 86.5052 18.0619 86.5052 13.5797C86.5052 9.09942 83.3795 6.29247 79.5746 6.29247ZM17.2609 6.42738V9.68734H24.8264L17.0795 17.6994V20.7782H29.9472V17.5182H21.8377L29.5844 9.45988V6.42738H17.2609ZM96.0659 17.7901C93.7538 17.7901 92.2608 16.0705 92.2608 13.6703C92.2608 11.2258 93.7564 9.45988 96.0659 9.45988C98.3753 9.45988 99.9609 11.1794 99.9609 13.624C99.9609 16.0241 98.3753 17.7901 96.0659 17.7901ZM4.0326 13.626C4.0326 16.1148 5.57228 17.7458 7.92815 17.7458C10.284 17.7458 11.8237 16.1168 11.8237 13.626C11.8237 11.1351 10.284 9.50613 7.92815 9.50613C5.57228 9.50613 4.0326 11.1351 4.0326 13.626ZM34.931 13.626C34.931 16.1148 36.4707 17.7458 38.8265 17.7458C41.1824 17.7458 42.7221 16.1168 42.7221 13.626C42.7221 11.1351 41.1824 9.50613 38.8265 9.50613C36.4707 9.50613 34.931 11.1351 34.931 13.626ZM78.5307 17.7901C76.3119 17.7901 74.5888 16.1148 74.5888 13.626C74.5888 11.0908 76.3099 9.59678 78.5307 9.59678C80.7516 9.59678 82.4726 11.0908 82.4726 13.626C82.4726 16.1148 80.7516 17.7901 78.5307 17.7901ZM133.262 20.7782L128.053 13.8978V20.7782H124.201V6.42738H128.053V12.3574L132.855 6.42738H137.613L131.722 12.9454L138.155 20.7762H133.262V20.7782Z" fill="#005BFF"/>
</g>
</svg>
