<svg width="157" height="39" viewBox="0 0 157 39" fill="none" xmlns="http://www.w3.org/2000/svg">
<g opacity="0.7">
<circle cx="17.5994" cy="19.3594" r="14.5994" stroke="#155EEF" stroke-width="6"/>
<path d="M58.2398 16.2028C58.2398 17.1227 58.0181 17.9851 57.5746 18.7899C57.1475 19.5948 56.4658 20.2437 55.5295 20.7364C54.6097 21.2292 53.4434 21.4756 52.0308 21.4756H49.148V28.0789H45.6985V10.8808H52.0308C53.3613 10.8808 54.4947 11.1108 55.431 11.5707C56.3672 12.0306 57.0654 12.663 57.5253 13.4679C58.0016 14.2728 58.2398 15.1844 58.2398 16.2028ZM51.8829 18.6914C52.8356 18.6914 53.542 18.4778 54.0019 18.0508C54.4618 17.6073 54.6918 16.9913 54.6918 16.2028C54.6918 14.5274 53.7555 13.6896 51.8829 13.6896H49.148V18.6914H51.8829Z" fill="#181D27"/>
<path d="M65.7646 28.3006C64.4505 28.3006 63.2678 28.0132 62.2165 27.4383C61.1653 26.8469 60.3357 26.0174 59.728 24.9497C59.1366 23.882 58.841 22.6501 58.841 21.2539C58.841 19.8576 59.1449 18.6257 59.7526 17.558C60.3768 16.4903 61.2228 15.669 62.2905 15.0941C63.3581 14.5027 64.549 14.2071 65.8631 14.2071C67.1772 14.2071 68.3681 14.5027 69.4358 15.0941C70.5035 15.669 71.3412 16.4903 71.949 17.558C72.5732 18.6257 72.8853 19.8576 72.8853 21.2539C72.8853 22.6501 72.565 23.882 71.9243 24.9497C71.3002 26.0174 70.446 26.8469 69.3619 27.4383C68.2942 28.0132 67.0951 28.3006 65.7646 28.3006ZM65.7646 25.2947C66.3888 25.2947 66.9719 25.1468 67.5139 24.8512C68.0724 24.5391 68.5159 24.0791 68.8445 23.4714C69.173 22.8636 69.3372 22.1244 69.3372 21.2539C69.3372 19.9562 68.9923 18.9624 68.3024 18.2725C67.6289 17.5662 66.7994 17.213 65.8138 17.213C64.8283 17.213 63.9988 17.5662 63.3253 18.2725C62.6682 18.9624 62.3397 19.9562 62.3397 21.2539C62.3397 22.5515 62.66 23.5535 63.3007 24.2598C63.9577 24.9497 64.779 25.2947 65.7646 25.2947Z" fill="#181D27"/>
<path d="M77.8795 9.84595V28.0789H74.43V9.84595H77.8795Z" fill="#181D27"/>
<path d="M93.3608 14.4288L84.9095 34.5343H81.2383L84.195 27.7339L78.7251 14.4288H82.5935L86.1169 23.9642L89.6895 14.4288H93.3608Z" fill="#181D27"/>
<path d="M111.186 14.2317C112.862 14.2317 114.209 14.7491 115.227 15.784C116.262 16.8024 116.779 18.2315 116.779 20.0712V28.0789H113.33V20.5393C113.33 19.4716 113.059 18.6585 112.517 18.1C111.975 17.5251 111.236 17.2377 110.299 17.2377C109.363 17.2377 108.616 17.5251 108.057 18.1C107.515 18.6585 107.244 19.4716 107.244 20.5393V28.0789H103.795V20.5393C103.795 19.4716 103.524 18.6585 102.982 18.1C102.439 17.5251 101.7 17.2377 100.764 17.2377C99.8113 17.2377 99.0557 17.5251 98.4972 18.1C97.9552 18.6585 97.6842 19.4716 97.6842 20.5393V28.0789H94.2347V14.4288H97.6842V16.0796C98.1277 15.5047 98.6944 15.053 99.3842 14.7245C100.091 14.396 100.863 14.2317 101.7 14.2317C102.768 14.2317 103.721 14.4617 104.558 14.9216C105.396 15.3651 106.045 16.0057 106.505 16.8435C106.948 16.055 107.589 15.4226 108.427 14.9462C109.281 14.4699 110.201 14.2317 111.186 14.2317Z" fill="#181D27"/>
<path d="M118.18 21.2046C118.18 19.8248 118.451 18.601 118.993 17.5333C119.552 16.4657 120.299 15.6444 121.235 15.0694C122.188 14.4945 123.248 14.2071 124.414 14.2071C125.432 14.2071 126.319 14.4124 127.075 14.823C127.847 15.2337 128.463 15.7511 128.923 16.3753V14.4288H132.397V28.0789H128.923V26.0831C128.479 26.7237 127.863 27.2576 127.075 27.6847C126.303 28.0953 125.408 28.3006 124.389 28.3006C123.239 28.3006 122.188 28.005 121.235 27.4136C120.299 26.8223 119.552 25.9928 118.993 24.9251C118.451 23.841 118.18 22.6008 118.18 21.2046ZM128.923 21.2539C128.923 20.4161 128.759 19.7016 128.43 19.1103C128.102 18.5025 127.658 18.0426 127.1 17.7305C126.541 17.4019 125.942 17.2377 125.301 17.2377C124.66 17.2377 124.069 17.3937 123.527 17.7058C122.985 18.0179 122.541 18.4778 122.196 19.0856C121.868 19.677 121.704 20.3833 121.704 21.2046C121.704 22.0259 121.868 22.7486 122.196 23.3728C122.541 23.9806 122.985 24.4487 123.527 24.7772C124.085 25.1058 124.677 25.27 125.301 25.27C125.942 25.27 126.541 25.114 127.1 24.8019C127.658 24.4734 128.102 24.0134 128.43 23.4221C128.759 22.8143 128.923 22.0916 128.923 21.2539Z" fill="#181D27"/>
<path d="M138.797 17.2623V23.8656C138.797 24.3255 138.903 24.6623 139.117 24.8758C139.347 25.0729 139.725 25.1715 140.25 25.1715H141.852V28.0789H139.684C136.776 28.0789 135.323 26.6662 135.323 23.841V17.2623H133.696V14.4288H135.323V11.0533H138.797V14.4288H141.852V17.2623H138.797Z" fill="#181D27"/>
<path d="M151.035 14.2317C152.07 14.2317 152.989 14.4617 153.794 14.9216C154.599 15.3651 155.223 16.0304 155.667 16.9174C156.127 17.788 156.357 18.8392 156.357 20.0712V28.0789H152.907V20.5393C152.907 19.4552 152.636 18.6257 152.094 18.0508C151.552 17.4594 150.813 17.1638 149.877 17.1638C148.924 17.1638 148.168 17.4594 147.61 18.0508C147.068 18.6257 146.797 19.4552 146.797 20.5393V28.0789H143.347V9.84595H146.797V16.1289C147.24 15.5376 147.832 15.0777 148.571 14.7491C149.31 14.4042 150.131 14.2317 151.035 14.2317Z" fill="#181D27"/>
</g>
</svg>
