<svg width="323" height="250" viewBox="0 0 323 250" fill="none" xmlns="http://www.w3.org/2000/svg">
<g filter="url(#filter0_d_76_164)">
<path d="M471.93 48.0108L215.739 195.923C213.213 197.381 209.116 197.381 206.589 195.923L41.8948 100.836C39.3684 99.3777 39.3684 97.0122 41.8948 95.5535L298.086 -52.3586C300.613 -53.8173 304.71 -53.8173 307.236 -52.3586L471.931 42.7277C474.457 44.187 474.457 46.5522 471.93 48.0108Z" fill="#FF4B55"/>
<path d="M108.557 88.4575L125.996 93.4896L139.888 85.5923C141.687 84.5696 144.705 85.4577 144.329 86.8987L141.428 98.0289L158.73 103.217C160.97 103.889 160.439 105.82 157.95 106.059L138.718 107.905L135.52 119.009C135.106 120.446 131.76 120.752 130.597 119.459L121.611 109.47L102.333 111.145C99.837 111.362 98.2994 109.619 100.071 108.581L113.749 100.561L105.033 90.4922C103.905 89.1882 106.3 87.8056 108.557 88.4575Z" fill="#FFE15A"/>
<path d="M161.838 61.4172L169.23 62.074L172.699 58.2486C173.148 57.7534 174.431 57.8734 174.586 58.4249L175.788 62.6865L183.161 63.4091C184.115 63.5024 184.314 64.2439 183.454 64.4997L176.804 66.4769L177.893 70.749C178.034 71.3019 176.873 71.6403 176.187 71.2468L170.875 68.2069L164.173 70.1245C163.306 70.3722 162.39 69.8406 162.826 69.3412L166.191 65.4856L160.962 62.3983C160.286 61.9995 160.881 61.3323 161.838 61.4172Z" fill="#FFE15A"/>
<path d="M130.085 65.0706L135.914 62.3649L133.367 58.3049C133.038 57.7792 134.057 57.3139 134.867 57.62L141.124 59.9843L147.025 57.3316C147.789 56.9881 148.87 57.4037 148.616 57.9434L146.655 62.1099L152.848 64.5302C153.65 64.8438 153.3 65.5658 152.333 65.5933L144.863 65.804L142.79 69.9522C142.522 70.4893 141.222 70.5201 140.879 69.9974L138.223 65.9607L130.748 66.1044C129.783 66.1241 129.331 65.421 130.085 65.0706Z" fill="#FFE15A"/>
<path d="M189.647 89.8616L190.785 94.1298L184.159 96.1324C183.301 96.3918 183.509 97.1323 184.464 97.2218L191.845 97.9157L193.097 102.173C193.259 102.724 194.543 102.839 194.986 102.342L198.411 98.5027L205.81 99.1311C206.768 99.2124 207.354 98.5425 206.672 98.1461L201.407 95.0792L204.728 91.2101C205.158 90.7089 204.237 90.1805 203.372 90.4322L196.694 92.3752L191.346 89.3562C190.655 88.9666 189.499 89.3089 189.647 89.8616Z" fill="#FFE15A"/>
<path d="M196.742 71.9714L192.055 75.3366L185.023 73.8666C184.113 73.6766 183.307 74.2646 183.837 74.7322L187.931 78.3452L183.337 81.752C182.742 82.193 183.462 82.8174 184.397 82.6708L191.613 81.5383L195.805 85.1142C196.348 85.5773 197.599 85.3748 197.646 84.8165L198.011 80.5037L205.196 79.3068C206.126 79.1521 206.18 78.402 205.275 78.2037L198.283 76.6702L198.532 72.3544C198.567 71.7964 197.35 71.5355 196.742 71.9714Z" fill="#FFE15A"/>
</g>
<defs>
<filter id="filter0_d_76_164" x="0" y="-53.4526" width="513.825" height="330.469" filterUnits="userSpaceOnUse" color-interpolation-filters="sRGB">
<feFlood flood-opacity="0" result="BackgroundImageFix"/>
<feColorMatrix in="SourceAlpha" type="matrix" values="0 0 0 0 0 0 0 0 0 0 0 0 0 0 0 0 0 0 127 0" result="hardAlpha"/>
<feOffset dy="40"/>
<feGaussianBlur stdDeviation="20"/>
<feComposite in2="hardAlpha" operator="out"/>
<feColorMatrix type="matrix" values="0 0 0 0 1 0 0 0 0 0.294118 0 0 0 0 0.333333 0 0 0 0.25 0"/>
<feBlend mode="normal" in2="BackgroundImageFix" result="effect1_dropShadow_76_164"/>
<feBlend mode="normal" in="SourceGraphic" in2="effect1_dropShadow_76_164" result="shape"/>
</filter>
</defs>
</svg>
