<svg width="323" height="250" viewBox="0 0 323 250" fill="none" xmlns="http://www.w3.org/2000/svg">
<g filter="url(#filter0_dd_80_8)">
<path d="M360.609 -21.5431L95.2683 131.652L41.8948 100.836C39.3684 99.3778 39.3684 97.0123 41.8948 95.5537L298.086 -52.3585C300.613 -53.8172 304.71 -53.8172 307.236 -52.3585L360.609 -21.5431Z" fill="#464655"/>
<path d="M471.93 48.0109L215.739 195.923C213.213 197.381 209.116 197.381 206.589 195.923L153.216 165.108L418.557 11.9132L471.93 42.7281C474.457 44.187 474.457 46.5522 471.93 48.0109Z" fill="#FFE15A"/>
<path d="M360.608 -21.5435L95.2674 131.651L153.212 165.106L418.553 11.911L360.608 -21.5435Z" fill="#FF4B55"/>
</g>
<defs>
<filter id="filter0_dd_80_8" x="0" y="-53.4525" width="513.825" height="330.469" filterUnits="userSpaceOnUse" color-interpolation-filters="sRGB">
<feFlood flood-opacity="0" result="BackgroundImageFix"/>
<feColorMatrix in="SourceAlpha" type="matrix" values="0 0 0 0 0 0 0 0 0 0 0 0 0 0 0 0 0 0 127 0" result="hardAlpha"/>
<feOffset dy="40"/>
<feGaussianBlur stdDeviation="20"/>
<feComposite in2="hardAlpha" operator="out"/>
<feColorMatrix type="matrix" values="0 0 0 0 1 0 0 0 0 0.294118 0 0 0 0 0.333333 0 0 0 0.25 0"/>
<feBlend mode="normal" in2="BackgroundImageFix" result="effect1_dropShadow_80_8"/>
<feColorMatrix in="SourceAlpha" type="matrix" values="0 0 0 0 0 0 0 0 0 0 0 0 0 0 0 0 0 0 127 0" result="hardAlpha"/>
<feOffset dy="40"/>
<feGaussianBlur stdDeviation="20"/>
<feComposite in2="hardAlpha" operator="out"/>
<feColorMatrix type="matrix" values="0 0 0 0 1 0 0 0 0 0.882353 0 0 0 0 0.352941 0 0 0 0.25 0"/>
<feBlend mode="normal" in2="effect1_dropShadow_80_8" result="effect2_dropShadow_80_8"/>
<feBlend mode="normal" in="SourceGraphic" in2="effect2_dropShadow_80_8" result="shape"/>
</filter>
</defs>
</svg>
