<svg width="20" height="17" viewBox="0 0 20 17" fill="none" xmlns="http://www.w3.org/2000/svg">
<path fill-rule="evenodd" clip-rule="evenodd" d="M-3.71547e-07 8.5C-3.81083e-07 8.71816 0.0925081 8.92739 0.257174 9.08165L8.4523 16.7591C8.79519 17.0803 9.35114 17.0803 9.69404 16.7591C10.0369 16.4378 10.0369 15.917 9.69404 15.5958L2.99785 9.32258L19 9.32258C19.4849 9.32258 19.878 8.9543 19.878 8.5C19.878 8.0457 19.4849 7.67742 19 7.67742L2.99785 7.67742L9.69405 1.40423C10.0369 1.083 10.0369 0.562166 9.69405 0.240929C9.35115 -0.080309 8.7952 -0.080309 8.4523 0.240929L0.257174 7.91835C0.0925081 8.07261 -3.62011e-07 8.28184 -3.71547e-07 8.5Z" fill="#9CA3AF"/>
</svg>
