<svg width="20" height="17" viewBox="0 0 20 17" fill="none" xmlns="http://www.w3.org/2000/svg">
<path fill-rule="evenodd" clip-rule="evenodd" d="M19.8781 8.5C19.8781 8.71816 19.7855 8.92739 19.6209 9.08165L11.4258 16.7591C11.0829 17.0803 10.5269 17.0803 10.184 16.7591C9.84111 16.4378 9.84111 15.917 10.184 15.5958L16.8802 9.32258L0.878052 9.32258C0.39312 9.32258 2.29875e-06 8.9543 2.2789e-06 8.5C2.25904e-06 8.0457 0.39312 7.67742 0.878052 7.67742L16.8802 7.67742L10.184 1.40423C9.84111 1.083 9.84111 0.562166 10.184 0.240929C10.5269 -0.080309 11.0829 -0.080309 11.4258 0.240929L19.6209 7.91835C19.7855 8.07261 19.8781 8.28184 19.8781 8.5Z" fill="white"/>
</svg>
