<svg width="46" height="46" viewBox="0 0 46 46" fill="none" xmlns="http://www.w3.org/2000/svg">
<circle cx="23" cy="23" r="23" fill="#2563EB"/>
<path d="M30.3333 18.3338H28.7367C28.8973 18.0162 28.9872 17.6675 29 17.3118C28.9769 16.683 28.7077 16.0884 28.2505 15.6561C27.7932 15.2237 27.1845 14.9883 26.5553 15.0004C25.806 15.0327 25.0794 15.2679 24.4532 15.6808C23.8271 16.0938 23.3248 16.669 23 17.3451C22.6787 16.6709 22.1802 16.0966 21.5579 15.6837C20.9356 15.2707 20.2128 15.0346 19.4667 15.0004C19.4413 15.0004 19.416 15.0004 19.3907 15.0004C18.7705 15.0014 18.1749 15.2428 17.7291 15.6739C17.2833 16.1049 17.0219 16.692 17 17.3118V17.3558C17.013 17.6961 17.0992 18.0297 17.2527 18.3338H15.6667C15.4899 18.3338 15.3203 18.404 15.1953 18.529C15.0702 18.6541 15 18.8236 15 19.0004V21.0004C15 21.1773 15.0702 21.3468 15.1953 21.4719C15.3203 21.5969 15.4899 21.6671 15.6667 21.6671H30.3333C30.5101 21.6671 30.6797 21.5969 30.8047 21.4719C30.9298 21.3468 31 21.1773 31 21.0004V19.0004C31 18.8236 30.9298 18.6541 30.8047 18.529C30.6797 18.404 30.5101 18.3338 30.3333 18.3338ZM26.576 16.3338C26.8483 16.3267 27.113 16.4241 27.3158 16.6059C27.5186 16.7878 27.6441 17.0403 27.6667 17.3118C27.6572 17.5847 27.5427 17.8433 27.347 18.0338C27.1514 18.2242 26.8897 18.3317 26.6167 18.3338H23.9853C24.4 17.4944 25.2247 16.3338 26.576 16.3338ZM18.3333 17.3338C18.3504 17.061 18.4715 16.8051 18.6718 16.619C18.872 16.433 19.136 16.3309 19.4093 16.3338C20.7887 16.3391 21.5967 17.4878 22.016 18.3338H19.416C19.1423 18.3358 18.878 18.2336 18.6769 18.0479C18.4758 17.8621 18.353 17.6068 18.3333 17.3338Z" fill="white"/>
<path d="M24.3333 23.0005V31.0005H27.6666C28.1971 31.0005 28.7058 30.7898 29.0809 30.4147C29.4559 30.0396 29.6666 29.5309 29.6666 29.0005V23.0005H24.3333Z" fill="white"/>
<path d="M21.6666 23.0005H16.3333V29.0005C16.3333 29.5309 16.544 30.0396 16.9191 30.4147C17.2942 30.7898 17.8029 31.0005 18.3333 31.0005H21.6666V23.0005Z" fill="white"/>
</svg>
