<svg width="145" height="39" viewBox="0 0 145 39" fill="none" xmlns="http://www.w3.org/2000/svg">
<path d="M13.8282 27.6562C21.4652 27.6562 27.6562 21.4651 27.6562 13.8281C27.6562 12.9626 27.5767 12.1156 27.4246 11.2942C26.6031 11.142 25.7562 11.0625 24.8906 11.0625C17.2536 11.0625 11.0626 17.2535 11.0626 24.8906C11.0626 25.7561 11.1421 26.6031 11.2942 27.4245C12.1157 27.5767 12.9626 27.6562 13.8282 27.6562Z" fill="#175CD3"/>
<path fill-rule="evenodd" clip-rule="evenodd" d="M11.2941 27.4245C4.86726 26.2343 0 20.5996 0 13.8281C0 6.19104 6.19104 0 13.8281 0C20.5996 0 26.2343 4.86726 27.4245 11.2941C26.603 11.142 25.7561 11.0625 24.8905 11.0625C17.2535 11.0625 11.0625 17.2535 11.0625 24.8905C11.0625 25.7561 11.142 26.603 11.2941 27.4245Z" fill="#1570EF"/>
<path fill-rule="evenodd" clip-rule="evenodd" d="M13.8281 27.656C21.4651 27.656 27.6562 21.4649 27.6562 13.8279C27.6562 12.9624 27.5766 12.1154 27.4245 11.2939C33.8514 12.4842 38.7186 18.1189 38.7186 24.8904C38.7186 32.5274 32.5276 38.7184 24.8906 38.7184C18.119 38.7184 12.4843 33.8512 11.2941 27.4243C12.1156 27.5765 12.9626 27.656 13.8281 27.656Z" fill="#2E90FA"/>
<path d="M59.4419 28.3702C64.1673 28.3702 67.5728 25.7039 67.916 21.7441H63.9561C63.6394 23.6448 61.8178 24.9383 59.4419 24.9383C56.4588 24.9383 54.1621 22.8792 54.1621 18.9194C54.1621 14.9595 56.4588 12.874 59.4419 12.874C61.765 12.874 63.5866 14.1675 63.8505 16.0947H67.9952C67.4936 12.1084 64.0881 9.4685 59.4419 9.4685C54.5053 9.4685 50.1758 12.6892 50.1758 18.9194C50.1758 25.1495 54.4261 28.3702 59.4419 28.3702Z" fill="#181D27"/>
<path d="M75.2648 14.6427C71.6218 14.6427 69.457 16.781 69.2987 19.4473H72.5721C72.6249 18.3386 73.4433 17.3354 75.0536 17.3354C76.5584 17.3354 77.4296 18.101 77.4296 19.2097C77.4296 19.7641 77.0864 20.1865 76.4264 20.1865H74.1825C71.2786 20.1865 69.3251 21.7705 69.3251 24.384C69.3251 26.6543 71.0938 28.3702 73.6809 28.3702C75.5024 28.3702 76.9808 27.5518 77.4296 26.3111V28.159H81.0726V19.6057C81.0726 16.5962 78.6175 14.6427 75.2648 14.6427ZM74.6049 25.7039C73.5753 25.7039 72.8361 25.0967 72.8361 24.2256C72.8361 23.196 73.6281 22.5096 74.7369 22.5096H77.4296V22.6944C77.4296 24.384 76.4 25.7039 74.6049 25.7039Z" fill="#181D27"/>
<path d="M83.5387 33.5444H87.2081V26.9711C87.9209 27.8686 89.2145 28.3702 90.7192 28.3702C94.5471 28.3702 97.1342 25.6511 97.1342 21.5065C97.1342 17.3618 94.7583 14.6427 91.036 14.6427C89.3201 14.6427 88.0001 15.2763 87.2081 16.3058V14.8539H83.5387V33.5444ZM90.2704 25.2023C88.2905 25.2023 86.9969 23.724 86.9969 21.5065C86.9969 19.2625 88.2905 17.7842 90.2704 17.7842C92.1976 17.7842 93.5175 19.2625 93.5175 21.5065C93.5175 23.724 92.1976 25.2023 90.2704 25.2023Z" fill="#181D27"/>
<path d="M103.595 28.3702C106.71 28.3702 108.77 26.7071 108.77 24.1728C108.77 18.1538 101.483 21.2425 101.483 18.5234C101.483 17.6786 102.196 17.2298 103.226 17.2298C104.229 17.2298 105.258 17.837 105.417 18.9722H108.611C108.479 16.3586 106.314 14.6427 103.12 14.6427C100.401 14.6427 98.3683 16.3058 98.3683 18.6554C98.3683 24.252 105.522 21.5857 105.522 24.3048C105.522 25.0439 104.731 25.5983 103.595 25.5983C102.223 25.5983 101.299 24.8591 101.167 23.6712H97.9987C98.1307 26.5487 100.348 28.3702 103.595 28.3702Z" fill="#181D27"/>
<path d="M123.263 14.8539H119.567V22.14C119.567 23.8296 118.432 25.0967 116.821 25.0967C115.317 25.0967 114.261 23.9352 114.261 22.3248V14.8539H110.591V23.1432C110.591 26.1791 112.545 28.3702 115.528 28.3702C117.349 28.3702 118.828 27.5782 119.567 26.3111V28.159H123.263V14.8539Z" fill="#181D27"/>
<path d="M125.903 28.159H129.572V9.07251H125.903V28.159Z" fill="#181D27"/>
<path d="M141.104 23.6448C140.814 24.7799 139.837 25.3607 138.359 25.3607C136.511 25.3607 135.323 24.1992 135.059 22.3248H144.616C144.642 22.0344 144.668 21.6385 144.668 21.1369C144.668 18.101 142.794 14.6427 138.095 14.6427C133.581 14.6427 131.522 18.101 131.522 21.4801C131.522 24.8327 133.845 28.3702 138.359 28.3702C141.632 28.3702 144.167 26.5223 144.695 23.6448H141.104ZM138.095 17.3354C139.864 17.3354 140.893 18.5234 140.999 20.0017H135.112C135.429 18.1538 136.432 17.3354 138.095 17.3354Z" fill="#181D27"/>
</svg>
