<svg width="136" height="24" viewBox="0 0 136 24" fill="none" xmlns="http://www.w3.org/2000/svg">
<path d="M108.401 13.3113C108.401 16.3872 105.908 18.9329 102.779 18.9329C99.7035 18.9329 97.1578 16.4403 97.1578 13.3113C97.1578 10.2353 99.6504 7.6897 102.779 7.6897C105.855 7.74273 108.401 10.2353 108.401 13.3113Z" fill="#0095D4"/>
<path d="M121.819 13.3113C121.819 16.3872 119.326 18.9329 116.197 18.9329C113.121 18.9329 110.576 16.4403 110.576 13.3113C110.576 10.2353 113.068 7.6897 116.197 7.6897C119.326 7.74273 121.819 10.2353 121.819 13.3113Z" fill="#66ADDF"/>
<path d="M135.289 13.3113C135.289 16.3872 132.797 18.9329 129.668 18.9329C126.592 18.9329 124.046 16.4403 124.046 13.3113C124.046 10.2353 126.539 7.6897 129.668 7.6897C132.797 7.74273 135.289 10.2353 135.289 13.3113Z" fill="#92C0E6"/>
<path fill-rule="evenodd" clip-rule="evenodd" d="M80.081 1.96225V11.8265H80.1341V17.0239V17.0769C80.1341 18.1906 79.2325 19.0922 78.1188 19.0922C77.3763 19.0922 76.7399 18.6679 76.3687 18.0845L76.1035 18.2436C75.0428 18.774 73.823 19.0922 72.4972 19.0922C68.2015 19.0922 64.9664 15.9101 64.9664 11.8796V11.8265C64.9664 7.79597 68.2015 4.56091 72.5502 4.56091C73.8231 4.56091 75.0428 4.87911 76.1035 5.40945V1.96225C76.1035 0.901574 77.0051 0 78.1188 0C79.1795 0 80.081 0.848541 80.081 1.96225ZM72.5502 15.698C74.5655 15.698 75.8383 14.2661 76.1035 12.516V11.2432C75.8914 9.44002 74.4595 7.95507 72.4972 7.95507C70.2698 7.95507 68.8909 9.70519 68.8909 11.7735V11.8265C68.8909 13.8949 70.3759 15.698 72.5502 15.698ZM16.5465 11.9326C16.5465 7.95506 19.7285 4.72 24.0773 4.72C28.373 4.72 31.555 7.90203 31.555 11.8796V11.9326C31.555 15.9101 28.373 19.1452 24.0242 19.1452C19.7285 19.1452 16.5465 15.9632 16.5465 11.9856V11.9326ZM24.0773 15.751C26.3577 15.751 27.6836 14.0539 27.6836 11.9856C27.6836 9.86428 26.1986 8.06113 24.0242 8.11416C21.7968 8.11416 20.4179 9.86428 20.4179 11.8796V11.9326C20.4179 13.9479 21.9029 15.751 24.0773 15.751ZM40.4648 4.61394C39.1389 4.61394 37.9191 4.93214 36.9115 5.46248V1.96225C36.9115 0.848541 36.0099 0 34.9492 0C33.8355 0 32.987 0.901574 32.987 1.96225V11.7735V11.8265V17.0239V17.0769C32.987 18.1906 33.8886 19.0922 35.0023 19.0922C35.7448 19.0922 36.3812 18.6679 36.7524 18.0845L37.0176 18.2436C38.0782 18.774 39.298 19.0922 40.6239 19.0922C44.9726 19.0922 48.1547 15.9101 48.1547 11.8796V11.8265C48.0486 7.849 44.8135 4.61394 40.4648 4.61394ZM44.1241 11.8265C44.1241 13.8949 42.6391 15.698 40.4648 15.698C38.4495 15.698 37.1236 14.3191 36.9115 12.516V11.2962C37.1767 9.49305 38.5555 8.00811 40.5178 8.00811C42.7982 8.00811 44.1241 9.75822 44.1241 11.8265ZM15.1677 11.9326V11.9856C15.1677 15.9632 11.9326 19.2513 7.47777 19.1982C6.20496 19.1982 4.98518 18.88 3.9245 18.3497V21.7969C3.9245 22.8576 3.07596 23.7591 1.96225 23.7591C0.901574 23.7591 0 22.9106 0 21.7969V11.9856V11.9326V6.73528V6.68225C0 5.56854 0.901574 4.72 2.01528 4.72C2.75776 4.72 3.39416 5.09124 3.71237 5.67461L4.03057 5.56854C5.09125 5.0382 6.31102 4.72 7.63687 4.72C11.9856 4.72 15.1677 7.90203 15.1677 11.9326ZM7.63687 15.8571C9.86429 15.8571 11.2432 14.107 11.2432 12.0387C11.2432 9.91731 9.75822 8.11416 7.58383 8.1672C5.56855 8.1672 4.29574 9.59911 4.03057 11.3492V12.569C4.2427 14.3722 5.67462 15.8571 7.63687 15.8571ZM59.3979 10.5007C59.2918 9.06879 58.2841 7.90205 56.5871 7.90205C54.89 7.90205 53.8823 8.90969 53.6172 10.5007H59.3979ZM62.739 16.5996C62.739 17.3951 62.1556 17.9785 60.9889 18.4558C59.7161 18.9861 58.3372 19.0922 57.0113 19.0922C54.6248 19.0922 52.7686 18.3497 51.4428 17.0769C50.1169 15.751 49.3745 13.8949 49.3745 11.7735C49.3745 9.7052 50.17 7.90205 51.3898 6.68227C52.6095 5.46249 54.3596 4.77305 56.5871 4.77305C58.8675 4.77305 60.4585 5.51552 61.5722 6.5762C62.8981 7.90205 63.3224 9.54609 63.3224 10.8719C63.3224 12.3039 62.5799 13.0994 61.3071 13.0994H53.6702C54.0414 14.9025 55.3143 15.9102 57.2765 15.9102C58.5192 15.9102 59.3069 15.5826 59.9594 15.3112C60.4208 15.1193 60.8147 14.9555 61.254 14.9555C62.1026 15.0086 62.739 15.751 62.739 16.5996ZM92.544 6.57618C93.9229 7.95506 94.3471 9.86428 94.4002 10.4477C94.5593 11.8796 94.5062 16.9708 94.5062 16.9708C94.5062 18.0315 93.6577 18.827 92.65 18.827C91.9606 18.827 91.3772 18.4558 91.059 17.9254C91.059 17.9254 89.5211 19.1982 86.4451 18.9861C82.9449 18.5618 81.2478 16.0162 81.7781 13.0993C82.8388 8.85664 87.6649 9.28091 87.6649 9.28091C87.6649 9.28091 89.0438 9.33394 90.3166 9.91731C89.7862 8.4854 88.6725 7.74293 87.0285 7.74293C85.8348 7.74293 85.3481 7.98482 84.9513 8.18204C84.6783 8.31778 84.4477 8.43236 84.0586 8.43236C83.21 8.43236 82.6267 7.68989 82.6267 6.84135C82.6267 6.04584 83.157 5.46247 84.2707 5.0382C85.4905 4.50786 86.1799 4.50786 87.4527 4.50786C89.6802 4.50786 91.3242 5.30337 92.544 6.57618ZM85.1192 14.213C85.1192 15.3798 86.3921 16.3874 87.93 16.3874C89.468 16.3874 90.7408 15.3798 90.7408 14.213C90.7408 13.0463 89.468 12.0387 87.93 12.0387C86.3921 12.0387 85.1192 12.9933 85.1192 14.213Z" fill="#0095D4"/>
</svg>
