<svg width="145" height="39" viewBox="0 0 145 39" fill="none" xmlns="http://www.w3.org/2000/svg">
<g opacity="0.9">
<path d="M0 18.5849C0 9.82388 0 5.44335 2.72192 2.72192C5.44335 0 9.82388 0 18.5849 0H20.1337C28.8947 0 33.2752 0 35.9967 2.72192C38.7186 5.44335 38.7186 9.82388 38.7186 18.5849V20.1337C38.7186 28.8947 38.7186 33.2752 35.9967 35.9967C33.2752 38.7186 28.8947 38.7186 20.1337 38.7186H18.5849C9.82388 38.7186 5.44335 38.7186 2.72192 35.9967C0 33.2752 0 28.8947 0 20.1337V18.5849Z" fill="#0077FF"/>
<path d="M20.1438 26.894C11.3189 26.894 6.28598 20.8442 6.07593 10.7773H10.4961C10.6413 18.1663 13.9005 21.2967 16.4816 21.9414V10.7778H20.6438V17.1499C23.1929 16.8755 25.8708 13.9716 26.7739 10.7778H30.9362C30.2426 14.7141 27.3387 17.618 25.2736 18.8119C27.3387 19.7799 30.6458 22.3126 31.9041 26.8944H27.3228C26.3388 23.8289 23.8865 21.4574 20.6438 21.1351V26.8944H20.1438V26.894Z" fill="white"/>
<path opacity="0.8" d="M45.5585 25.9197V12.8288H50.8C51.763 12.8288 52.5663 12.9715 53.2098 13.257C53.8532 13.5425 54.3369 13.9389 54.6608 14.446C54.9846 14.9488 55.1466 15.5283 55.1466 16.1846C55.1466 16.696 55.0443 17.1455 54.8397 17.5333C54.6352 17.9168 54.354 18.2322 53.996 18.4793C53.6423 18.7222 53.2375 18.8948 52.7815 18.9971V19.1249C53.2801 19.1462 53.7467 19.2869 54.1814 19.5468C54.6203 19.8068 54.9761 20.1711 55.2488 20.6398C55.5216 21.1043 55.6579 21.6583 55.6579 22.3018C55.6579 22.9964 55.4853 23.6164 55.1402 24.1619C54.7993 24.7031 54.2943 25.1313 53.6253 25.4467C52.9562 25.762 52.1317 25.9197 51.1515 25.9197H45.5585ZM48.3263 23.6569H50.5826C51.354 23.6569 51.9165 23.5099 52.2701 23.2158C52.6238 22.9175 52.8007 22.5212 52.8007 22.0269C52.8007 21.6647 52.7133 21.3451 52.5386 21.0681C52.3639 20.7911 52.1146 20.5738 51.7907 20.4161C51.4711 20.2585 51.0897 20.1796 50.6466 20.1796H48.3263V23.6569ZM48.3263 18.3068H50.3781C50.7574 18.3068 51.094 18.2407 51.388 18.1086C51.6863 17.9722 51.9207 17.7805 52.0912 17.5333C52.2659 17.2862 52.3532 16.99 52.3532 16.6448C52.3532 16.1718 52.1849 15.7904 51.8483 15.5006C51.5159 15.2109 51.0429 15.066 50.4292 15.066H48.3263V18.3068ZM65.3786 25.9197L61.1727 20.3394H60.2266V25.9197H57.4589V12.8288H60.2266V18.0575H60.7828L65.1293 12.8288H68.5747L63.4674 18.9012L68.8112 25.9197H65.3786ZM73.8673 26.1114C72.8744 26.1114 72.0157 25.9005 71.2913 25.4786C70.5711 25.0525 70.015 24.4602 69.623 23.7016C69.2309 22.9389 69.0349 22.0546 69.0349 21.0489C69.0349 20.0347 69.2309 19.1484 69.623 18.3898C70.015 17.6271 70.5711 17.0347 71.2913 16.6129C72.0157 16.1867 72.8744 15.9737 73.8673 15.9737C74.8602 15.9737 75.7167 16.1867 76.4369 16.6129C77.1613 17.0347 77.7195 17.6271 78.1116 18.3898C78.5036 19.1484 78.6997 20.0347 78.6997 21.0489C78.6997 22.0546 78.5036 22.9389 78.1116 23.7016C77.7195 24.4602 77.1613 25.0525 76.4369 25.4786C75.7167 25.9005 74.8602 26.1114 73.8673 26.1114ZM73.8801 24.0021C74.3318 24.0021 74.7089 23.8742 75.0114 23.6185C75.314 23.3586 75.542 23.0049 75.6954 22.5575C75.8531 22.11 75.9319 21.6008 75.9319 21.0298C75.9319 20.4587 75.8531 19.9495 75.6954 19.5021C75.542 19.0546 75.314 18.7009 75.0114 18.441C74.7089 18.181 74.3318 18.0511 73.8801 18.0511C73.4241 18.0511 73.0406 18.181 72.7295 18.441C72.4227 18.7009 72.1904 19.0546 72.0328 19.5021C71.8793 19.9495 71.8026 20.4587 71.8026 21.0298C71.8026 21.6008 71.8793 22.11 72.0328 22.5575C72.1904 23.0049 72.4227 23.3586 72.7295 23.6185C73.0406 23.8742 73.4241 24.0021 73.8801 24.0021ZM87.3034 19.9239V22.0653H82.1769V19.9239H87.3034ZM83.0718 16.1015V25.9197H80.4703V16.1015H83.0718ZM89.01 16.1015V25.9197H86.4276V16.1015H89.01ZM90.1366 18.2428V16.1015H99.0344V18.2428H95.8703V25.9197H93.2751V18.2428H90.1366ZM103.133 26.105C102.507 26.105 101.949 25.9964 101.459 25.7791C100.968 25.5575 100.581 25.2315 100.295 24.8011C100.014 24.3664 99.8733 23.8252 99.8733 23.1775C99.8733 22.632 99.9734 22.1739 100.174 21.8032C100.374 21.4325 100.647 21.1342 100.992 20.9083C101.337 20.6825 101.729 20.512 102.168 20.397C102.611 20.2819 103.076 20.2009 103.562 20.1541C104.133 20.0944 104.593 20.039 104.942 19.9879C105.292 19.9325 105.545 19.8515 105.703 19.745C105.861 19.6384 105.939 19.4808 105.939 19.272V19.2336C105.939 18.8288 105.812 18.5156 105.556 18.294C105.304 18.0724 104.946 17.9616 104.482 17.9616C103.992 17.9616 103.602 18.0702 103.312 18.2876C103.022 18.5006 102.831 18.7691 102.737 19.093L100.218 18.8884C100.346 18.2918 100.598 17.7762 100.973 17.3416C101.348 16.9026 101.831 16.566 102.424 16.3316C103.02 16.093 103.711 15.9737 104.495 15.9737C105.04 15.9737 105.562 16.0376 106.061 16.1654C106.564 16.2933 107.009 16.4914 107.397 16.7599C107.789 17.0283 108.098 17.3735 108.324 17.7954C108.549 18.213 108.662 18.7137 108.662 19.2975V25.9197H106.08V24.5582H106.003C105.846 24.865 105.635 25.1356 105.37 25.37C105.106 25.6001 104.789 25.7812 104.418 25.9133C104.047 26.0411 103.619 26.105 103.133 26.105ZM103.913 24.2258C104.314 24.2258 104.667 24.147 104.974 23.9893C105.281 23.8273 105.522 23.61 105.696 23.3373C105.871 23.0646 105.959 22.7556 105.959 22.4104V21.3685C105.873 21.4239 105.756 21.4751 105.607 21.522C105.462 21.5646 105.298 21.605 105.115 21.6434C104.932 21.6775 104.748 21.7095 104.565 21.7393C104.382 21.7648 104.216 21.7883 104.066 21.8096C103.747 21.8565 103.468 21.931 103.229 22.0333C102.99 22.1356 102.805 22.2741 102.673 22.4488C102.541 22.6193 102.475 22.8323 102.475 23.088C102.475 23.4587 102.609 23.7421 102.878 23.9381C103.15 24.1299 103.495 24.2258 103.913 24.2258ZM110.775 25.9197V16.1015H113.498V19.9112H114.265L116.937 16.1015H120.133L116.662 20.9722L120.171 25.9197H116.937L114.514 22.436H113.498V25.9197H110.775ZM120.81 18.2428V16.1015H129.708V18.2428H126.544V25.9197H123.949V18.2428H120.81ZM135.482 26.1114C134.472 26.1114 133.603 25.9069 132.874 25.4978C132.149 25.0845 131.591 24.5006 131.199 23.7464C130.807 22.9879 130.611 22.0908 130.611 21.0553C130.611 20.0454 130.807 19.159 131.199 18.3962C131.591 17.6335 132.143 17.039 132.855 16.6129C133.571 16.1867 134.41 15.9737 135.373 15.9737C136.021 15.9737 136.624 16.0781 137.182 16.2869C137.745 16.4914 138.235 16.8004 138.652 17.2137C139.074 17.6271 139.402 18.147 139.637 18.7734C139.871 19.3955 139.988 20.1242 139.988 20.9595V21.7073H131.698V20.0198H137.425C137.425 19.6278 137.34 19.2805 137.169 18.9779C136.999 18.6754 136.762 18.4389 136.46 18.2684C136.161 18.0937 135.814 18.0063 135.418 18.0063C135.005 18.0063 134.638 18.1022 134.318 18.294C134.003 18.4815 133.756 18.735 133.577 19.0546C133.398 19.37 133.306 19.7215 133.302 20.1093V21.7137C133.302 22.1995 133.392 22.6193 133.571 22.9729C133.754 23.3266 134.012 23.5994 134.344 23.7911C134.676 23.9829 135.071 24.0788 135.527 24.0788C135.829 24.0788 136.106 24.0362 136.358 23.9509C136.609 23.8657 136.824 23.7379 137.003 23.5674C137.182 23.397 137.318 23.1881 137.412 22.941L139.931 23.1072C139.803 23.7123 139.541 24.2407 139.144 24.6924C138.752 25.1398 138.245 25.4893 137.623 25.7407C137.005 25.9879 136.291 26.1114 135.482 26.1114Z" fill="black"/>
</g>
</svg>
