<svg width="66" height="66" viewBox="0 0 66 66" fill="none" xmlns="http://www.w3.org/2000/svg">
<circle cx="33" cy="33" r="30" stroke="#D5E2FF" stroke-width="6"/>
<path d="M3 33C3 49.5685 16.4315 63 33 63C49.5685 63 63 49.5685 63 33C63 16.4315 49.5685 3 33 3" stroke="#2563EB" stroke-width="6" stroke-linecap="round" stroke-linejoin="round"/>
<path d="M27.375 35.4286H26.4375C24.3662 35.4286 22.6875 37.1583 22.6875 39.2929V43.1356C22.6875 45.2697 24.3662 47 26.4375 47H27.375C28.4104 47 29.25 46.1346 29.25 45.0678V37.3608C29.25 36.2934 28.4104 35.4286 27.375 35.4286ZM39.5625 35.4286H38.625C37.5896 35.4286 36.75 36.2934 36.75 37.3608V45.0678C36.75 46.1346 37.5896 47 38.625 47H39.5625C41.6338 47 43.3125 45.2697 43.3125 43.1356V39.2929C43.3125 37.1589 41.6338 35.4286 39.5625 35.4286ZM33 20C24.6158 20 18.2678 27.1797 18 35.4286V42.1786C18 42.7113 18.4195 43.1429 18.9375 43.1429H19.875C20.393 43.1429 20.8125 42.7113 20.8125 42.1786V35.4286C20.8125 28.5177 26.2811 22.9049 33 22.9037C39.7189 22.9049 45.1875 28.5177 45.1875 35.4286V42.1786C45.1875 42.7113 45.607 43.1429 46.125 43.1429H47.0625C47.5805 43.1429 48 42.7113 48 42.1786V35.4286C47.7322 27.1797 41.3842 20 33 20Z" fill="#2563EB"/>
</svg>
