<svg width="66" height="66" viewBox="0 0 66 66" fill="none" xmlns="http://www.w3.org/2000/svg">
<circle cx="33" cy="33" r="30" stroke="#D5E2FF" stroke-width="6"/>
<path d="M33 3C49.5685 3 63 16.4315 63 33C63 49.5685 49.5685 63 33 63C16.4315 63 3 49.5685 3 33C3 21.1254 9.89911 10.8622 19.9076 6" stroke="#2563EB" stroke-width="6" stroke-linecap="round"/>
<path d="M18 24.25C18 22.5924 18.6585 21.0027 19.8306 19.8306C21.0027 18.6585 22.5924 18 24.25 18H41.75C43.4076 18 44.9973 18.6585 46.1694 19.8306C47.3415 21.0027 48 22.5924 48 24.25V41.75C48 43.4076 47.3415 44.9973 46.1694 46.1694C44.9973 47.3415 43.4076 48 41.75 48H24.25C22.5924 48 21.0027 47.3415 19.8306 46.1694C18.6585 44.9973 18 43.4076 18 41.75V24.25ZM34.25 39.25C34.25 39.5815 34.3817 39.8995 34.6161 40.1339C34.8505 40.3683 35.1685 40.5 35.5 40.5H41.125C41.4565 40.5 41.7745 40.3683 42.0089 40.1339C42.2433 39.8995 42.375 39.5815 42.375 39.25C42.375 38.9185 42.2433 38.6005 42.0089 38.3661C41.7745 38.1317 41.4565 38 41.125 38H35.5C35.1685 38 34.8505 38.1317 34.6161 38.3661C34.3817 38.6005 34.25 38.9185 34.25 39.25ZM35.5 28C35.1685 28 34.8505 28.1317 34.6161 28.3661C34.3817 28.6005 34.25 28.9185 34.25 29.25C34.25 29.5815 34.3817 29.8995 34.6161 30.1339C34.8505 30.3683 35.1685 30.5 35.5 30.5H41.125C41.4565 30.5 41.7745 30.3683 42.0089 30.1339C42.2433 29.8995 42.375 29.5815 42.375 29.25C42.375 28.9185 42.2433 28.6005 42.0089 28.3661C41.7745 28.1317 41.4565 28 41.125 28H35.5ZM31.385 35.865C31.2689 35.7486 31.1309 35.6562 30.9791 35.5932C30.8272 35.5302 30.6644 35.4978 30.5 35.4978C30.3356 35.4978 30.1728 35.5302 30.0209 35.5932C29.8691 35.6562 29.7311 35.7486 29.615 35.865L26.75 38.7325L25.765 37.745C25.5306 37.5103 25.2126 37.3783 24.8809 37.3781C24.5492 37.3778 24.231 37.5094 23.9962 37.7438C23.7615 37.9781 23.6295 38.2962 23.6293 38.6279C23.6291 38.9596 23.7606 39.2778 23.995 39.5125L25.865 41.385C25.9811 41.5014 26.1191 41.5938 26.2709 41.6568C26.4228 41.7198 26.5856 41.7522 26.75 41.7522C26.9144 41.7522 27.0772 41.7198 27.2291 41.6568C27.3809 41.5938 27.5189 41.5014 27.635 41.385L31.385 37.635C31.5014 37.5189 31.5938 37.3809 31.6568 37.2291C31.7198 37.0772 31.7522 36.9144 31.7522 36.75C31.7522 36.5856 31.7198 36.4228 31.6568 36.2709C31.5938 36.1191 31.5014 35.9811 31.385 35.865ZM31.385 27.635C31.5012 27.5188 31.5934 27.3808 31.6563 27.229C31.7192 27.0771 31.7516 26.9144 31.7516 26.75C31.7516 26.5856 31.7192 26.4229 31.6563 26.271C31.5934 26.1192 31.5012 25.9812 31.385 25.865C31.2688 25.7488 31.1308 25.6566 30.979 25.5937C30.8271 25.5308 30.6644 25.4984 30.5 25.4984C30.3356 25.4984 30.1729 25.5308 30.021 25.5937C29.8692 25.6566 29.7312 25.7488 29.615 25.865L26.75 28.7325L25.765 27.745C25.5303 27.5103 25.2119 27.3784 24.88 27.3784C24.5481 27.3784 24.2297 27.5103 23.995 27.745C23.7603 27.9797 23.6284 28.2981 23.6284 28.63C23.6284 28.9619 23.7603 29.2803 23.995 29.515L25.865 31.385C25.9811 31.5014 26.1191 31.5938 26.2709 31.6568C26.4228 31.7198 26.5856 31.7522 26.75 31.7522C26.9144 31.7522 27.0772 31.7198 27.2291 31.6568C27.3809 31.5938 27.5189 31.5014 27.635 31.385L31.385 27.635Z" fill="#2563EB"/>
</svg>
