<svg width="50" height="50" viewBox="0 0 50 50" fill="none" xmlns="http://www.w3.org/2000/svg">
<path d="M19.5759 3.07438C22.9405 1.16731 27.0595 1.16731 30.4241 3.07438L35.875 6.16395L41.2761 9.33978C44.61 11.3001 46.6695 14.8672 46.7002 18.7346L46.75 25L46.7002 31.2654C46.6695 35.1328 44.61 38.6999 41.2761 40.6602L35.875 43.8361L30.4241 46.9256C27.0595 48.8327 22.9405 48.8327 19.5759 46.9256L14.125 43.8361L8.72391 40.6602C5.39002 38.6999 3.33055 35.1328 3.2998 31.2654L3.25 25L3.2998 18.7346C3.33055 14.8672 5.39002 11.3001 8.72391 9.33978L14.125 6.16395L19.5759 3.07438Z" fill="#2563EB"/>
<path d="M41.3627 25C50.3995 25 34.0368 41 25 41C15.9632 41 41.3627 25 8.63735 25C-0.399494 25 15.9632 9 25 9C34.0368 9 8.63735 25 41.3627 25Z" fill="white"/>
</svg>
