<svg width="12" height="7" viewBox="0 0 12 7" fill="none" xmlns="http://www.w3.org/2000/svg">
<path d="M5.57502 4.175L9.47502 0.275C9.65836 0.0916666 9.89169 -5.50035e-08 10.175 -4.26186e-08C10.4584 -3.02337e-08 10.6917 0.0916666 10.875 0.275C11.0584 0.458333 11.15 0.691667 11.15 0.975C11.15 1.25833 11.0584 1.49167 10.875 1.675L6.27502 6.275C6.17502 6.375 6.06669 6.44583 5.95002 6.4875C5.83336 6.52917 5.70836 6.55 5.57502 6.55C5.44169 6.55 5.31669 6.52917 5.20002 6.4875C5.08336 6.44583 4.97502 6.375 4.87502 6.275L0.275024 1.675C0.091691 1.49167 2.37869e-05 1.25833 2.37992e-05 0.975C2.38116e-05 0.691666 0.091691 0.458333 0.275024 0.275C0.458358 0.0916662 0.691691 -4.57148e-07 0.975024 -4.44763e-07C1.25836 -4.32378e-07 1.49169 0.0916662 1.67502 0.275L5.57502 4.175Z" fill="#2563EB"/>
</svg>
