<svg width="60" height="61" viewBox="0 0 60 61" fill="none" xmlns="http://www.w3.org/2000/svg">
<path d="M53.7396 11.8123C55.1646 13.6795 56.3711 15.7081 57.3344 17.8574L30.0072 38.2729L18.5865 31.0173V22.2886L30.0072 29.5441L53.7396 11.8123Z" fill="#21A038"/>
<path d="M6.93073 30.4014C6.93073 30.0098 6.94016 29.6207 6.95901 29.2338L0.0376946 28.8901C0.0141368 29.3915 8.36408e-06 29.8977 8.36408e-06 30.4085C-0.00293646 34.4001 0.771758 38.3528 2.27967 42.0401C3.78757 45.7275 5.999 49.0768 8.7871 51.8959L13.6966 46.9228C11.5504 44.7566 9.8478 42.1817 8.68669 39.3464C7.52558 36.5111 6.92883 33.4712 6.93073 30.4014Z" fill="url(#paint0_linear_122_15)"/>
<path d="M30.0012 7.0237C30.3875 7.0237 30.7713 7.03803 31.153 7.05712L31.4993 0.040289C31.0031 0.0164141 30.5036 0.00447812 30.0012 0.00447812C26.0607 -0.000391783 22.1584 0.783595 18.5179 2.31142C14.8774 3.83925 11.5705 6.08083 8.7872 8.90744L13.6967 13.883C15.8343 11.7072 18.3752 9.98109 21.1733 8.80394C23.9714 7.62678 26.9714 7.02176 30.0012 7.0237Z" fill="url(#paint1_linear_122_15)"/>
<path d="M30.001 53.7823C29.6147 53.7823 29.2306 53.7823 28.8467 53.7512L28.5004 60.7657C28.9982 60.7911 29.4985 60.8039 30.001 60.8039C33.9397 60.808 37.8402 60.0236 41.4788 58.4953C45.1173 56.967 48.422 54.7251 51.2032 51.8986L46.3032 46.9255C44.1652 49.1001 41.6245 50.8252 38.827 52.0019C36.0294 53.1786 33.03 53.7837 30.001 53.7823Z" fill="url(#paint2_linear_122_15)"/>
<path d="M43.0055 11.1019L48.8384 6.7447C43.5071 2.36953 36.8521 -0.012145 29.992 4.65739e-05V7.02165C34.6374 7.01582 39.1749 8.43856 43.0055 11.1019Z" fill="url(#paint3_linear_122_15)"/>
<path d="M59.9999 30.4029C60.0037 28.5763 59.846 26.7528 59.5287 24.9547L53.0716 29.7774C53.0716 29.9852 53.0716 30.1929 53.0716 30.4029C53.0732 33.6697 52.3975 36.9004 51.0884 39.8855C49.7792 42.8706 47.8655 45.5437 45.4717 47.7313L50.1292 52.9481C53.2413 50.1007 55.7282 46.6224 57.4286 42.7387C59.1292 38.8547 60.0052 34.652 59.9999 30.4029Z" fill="#21A038"/>
<path d="M30.0012 53.7828C26.7776 53.784 23.5896 53.0989 20.6437 51.7722C17.698 50.4454 15.0599 48.5063 12.9005 46.0808L7.75546 50.7985C10.5646 53.9529 13.9967 56.4737 17.829 58.1975C21.6613 59.9212 25.8083 60.8094 30.0012 60.8043V53.7828Z" fill="url(#paint4_linear_122_15)"/>
<path d="M14.5305 13.0727L9.87548 7.85605C6.76248 10.7028 4.27466 14.181 2.57337 18.0649C0.872101 21.9487 -0.00463825 26.1517 1.84532e-05 30.4011H6.93075C6.92932 27.1345 7.60511 23.9038 8.91429 20.9187C10.2235 17.9336 12.1369 15.2606 14.5305 13.0727Z" fill="url(#paint5_linear_122_15)"/>
<defs>
<linearGradient id="paint0_linear_122_15" x1="10.1888" y1="51.0198" x2="2.43458" y2="28.9016" gradientUnits="userSpaceOnUse">
<stop offset="0.14" stop-color="#F1E813"/>
<stop offset="0.3" stop-color="#E6E418"/>
<stop offset="0.58" stop-color="#C9DA26"/>
<stop offset="0.89" stop-color="#A2CC39"/>
</linearGradient>
<linearGradient id="paint1_linear_122_15" x1="10.7661" y1="10.1489" x2="30.335" y2="2.79049" gradientUnits="userSpaceOnUse">
<stop offset="0.06" stop-color="#0FA7DF"/>
<stop offset="0.54" stop-color="#0098F8"/>
<stop offset="0.92" stop-color="#0290EA"/>
</linearGradient>
<linearGradient id="paint2_linear_122_15" x1="28.0435" y1="56.5661" x2="50.1265" y2="51.6435" gradientUnits="userSpaceOnUse">
<stop offset="0.12" stop-color="#A2CC39"/>
<stop offset="0.28" stop-color="#86C239"/>
<stop offset="0.87" stop-color="#219F38"/>
</linearGradient>
<linearGradient id="paint3_linear_122_15" x1="28.5504" y1="2.35172" x2="47.4494" y2="8.10646" gradientUnits="userSpaceOnUse">
<stop offset="0.06" stop-color="#0290EA"/>
<stop offset="0.79" stop-color="#0C89CA"/>
</linearGradient>
<linearGradient id="paint4_linear_122_15" x1="9.49402" y1="49.9437" x2="30.0843" y2="57.5368" gradientUnits="userSpaceOnUse">
<stop offset="0.13" stop-color="#F1E813"/>
<stop offset="0.3" stop-color="#EAE616"/>
<stop offset="0.53" stop-color="#D8DF1F"/>
<stop offset="0.8" stop-color="#BAD52D"/>
<stop offset="0.98" stop-color="#A2CC39"/>
</linearGradient>
<linearGradient id="paint5_linear_122_15" x1="2.58196" y1="31.251" x2="11.014" y2="9.60759" gradientUnits="userSpaceOnUse">
<stop offset="0.07" stop-color="#A2CC39"/>
<stop offset="0.26" stop-color="#81C45E"/>
<stop offset="0.92" stop-color="#0FA7DF"/>
</linearGradient>
</defs>
</svg>
