<svg width="323" height="250" viewBox="0 0 323 250" fill="none" xmlns="http://www.w3.org/2000/svg">
<g filter="url(#filter0_d_74_12)">
<path d="M471.925 48.0117L215.737 195.922C213.211 197.38 209.114 197.38 206.587 195.922L41.8948 100.837C39.3684 99.3779 39.3684 97.0124 41.8948 95.5538L298.083 -52.3567C300.61 -53.8153 304.707 -53.8153 307.233 -52.3567L471.926 42.7286C474.452 44.1875 474.452 46.553 471.925 48.0117Z" fill="#41479B"/>
<path d="M307.233 -52.3564C304.706 -53.815 300.609 -53.815 298.083 -52.3564L277.615 -40.5393L248.39 40.4516L192.862 8.39271L147.114 34.8053L202.642 66.8642L62.3621 83.737L41.8948 95.5538C39.3684 97.0124 39.3684 99.3779 41.8948 100.837L53.7267 107.668L174.08 93.1916L101.367 135.173L147.115 161.585L219.828 119.604L194.755 189.091L206.587 195.922C209.114 197.38 213.211 197.38 215.737 195.922L236.205 184.105L265.43 103.114L320.958 135.173L366.706 108.76L311.178 76.7012L451.458 59.8281L471.926 48.011C474.453 46.5524 474.453 44.1869 471.926 42.7283L460.094 35.8971L339.741 50.3733L412.453 8.39272L366.705 -18.0199L293.992 23.9612L319.065 -45.5252L307.233 -52.3564Z" fill="#F5F5F5"/>
<path d="M375.855 -12.7374L256.91 55.9352L183.713 13.6749L156.264 29.5226L229.461 71.7829L110.517 140.456L137.965 156.303L256.91 87.6303L330.107 129.891L357.556 114.043L284.359 71.7826L403.303 3.10995L375.855 -12.7374Z" fill="#FF4B55"/>
<path d="M239.854 108.043L207.36 196.217C209.894 197.306 213.439 197.249 215.739 195.922L222.04 192.284L256.66 98.3406L239.855 108.043L239.854 108.043Z" fill="#FF4B55"/>
<path d="M326.63 57.943L309.824 67.6456L472.301 47.6859C474.353 46.2189 474.29 44.0901 471.929 42.7269L468.167 40.5553L326.63 57.943Z" fill="#FF4B55"/>
<path d="M46.9495 103.751L185.212 86.7662L202.017 77.0636L40.4357 96.9122C39.5978 98.2356 40.06 99.7729 41.8992 100.835L46.9495 103.751Z" fill="#FF4B55"/>
<path d="M273.721 35.6654L306.292 -52.7209C303.771 -53.7316 300.336 -53.6559 298.089 -52.3583L291.534 -48.5742L256.916 45.368L273.721 35.6654Z" fill="#FF4B55"/>
</g>
<defs>
<filter id="filter0_d_74_12" x="0" y="-53.4507" width="513.821" height="330.466" filterUnits="userSpaceOnUse" color-interpolation-filters="sRGB">
<feFlood flood-opacity="0" result="BackgroundImageFix"/>
<feColorMatrix in="SourceAlpha" type="matrix" values="0 0 0 0 0 0 0 0 0 0 0 0 0 0 0 0 0 0 127 0" result="hardAlpha"/>
<feOffset dy="40"/>
<feGaussianBlur stdDeviation="20"/>
<feComposite in2="hardAlpha" operator="out"/>
<feColorMatrix type="matrix" values="0 0 0 0 0.254902 0 0 0 0 0.278431 0 0 0 0 0.607843 0 0 0 0.25 0"/>
<feBlend mode="normal" in2="BackgroundImageFix" result="effect1_dropShadow_74_12"/>
<feBlend mode="normal" in="SourceGraphic" in2="effect1_dropShadow_74_12" result="shape"/>
</filter>
</defs>
</svg>
