<svg width="323" height="250" viewBox="0 0 323 250" fill="none" xmlns="http://www.w3.org/2000/svg">
<g filter="url(#filter0_d_80_12)">
<path d="M471.93 48.011L215.739 195.923C213.213 197.381 209.116 197.381 206.589 195.923L41.8948 100.836C39.3684 99.3778 39.3684 97.0123 41.8948 95.5537L298.086 -52.3585C300.613 -53.8172 304.71 -53.8172 307.236 -52.3585L471.931 42.7278C474.457 44.1871 474.457 46.5523 471.93 48.011Z" fill="#F5F5F5"/>
<path d="M307.234 100.836C335.025 84.7904 335.025 58.7753 307.234 42.7297C279.442 26.6841 234.382 26.6841 206.591 42.7297C178.799 58.7753 178.799 84.7904 206.591 100.836C234.382 116.882 279.442 116.882 307.234 100.836Z" fill="#FF4B55"/>
</g>
<defs>
<filter id="filter0_d_80_12" x="0" y="-53.4525" width="513.825" height="330.469" filterUnits="userSpaceOnUse" color-interpolation-filters="sRGB">
<feFlood flood-opacity="0" result="BackgroundImageFix"/>
<feColorMatrix in="SourceAlpha" type="matrix" values="0 0 0 0 0 0 0 0 0 0 0 0 0 0 0 0 0 0 127 0" result="hardAlpha"/>
<feOffset dy="40"/>
<feGaussianBlur stdDeviation="20"/>
<feComposite in2="hardAlpha" operator="out"/>
<feColorMatrix type="matrix" values="0 0 0 0 1 0 0 0 0 0.294118 0 0 0 0 0.333333 0 0 0 0.25 0"/>
<feBlend mode="normal" in2="BackgroundImageFix" result="effect1_dropShadow_80_12"/>
<feBlend mode="normal" in="SourceGraphic" in2="effect1_dropShadow_80_12" result="shape"/>
</filter>
</defs>
</svg>
