<svg width="323" height="250" viewBox="0 0 323 250" fill="none" xmlns="http://www.w3.org/2000/svg">
<g filter="url(#filter0_ddd_81_36)">
<path d="M471.93 48.011L215.739 195.923C213.213 197.381 209.116 197.381 206.589 195.923L41.8948 100.836C39.3684 99.3778 39.3684 97.0123 41.8948 95.5537L298.086 -52.3585C300.613 -53.8172 304.71 -53.8172 307.236 -52.3585L471.931 42.7278C474.457 44.1871 474.457 46.5523 471.93 48.011Z" fill="#F5F5F5"/>
<path d="M244.234 35.1371C209.199 39.183 186.535 58.8834 193.515 79.0848C196.964 89.1879 214.052 95.7564 231.569 93.734C249.079 91.7162 260.42 81.8824 256.916 71.7683C253.413 61.6544 264.799 51.8356 282.271 49.7968C299.797 47.769 316.859 54.3528 320.316 64.4514C313.311 44.2243 279.252 31.1019 244.234 35.1371Z" fill="#FF4B55"/>
<path d="M193.516 79.0843C196.966 89.1874 214.054 95.7559 231.571 93.7336C249.081 91.7157 260.422 81.8819 256.918 71.7678C253.415 61.6539 264.8 51.8351 282.273 49.7963C299.799 47.7686 316.861 54.3523 320.318 64.4509C327.379 84.6888 304.653 104.343 269.618 108.388C234.602 112.423 200.524 99.312 193.516 79.0843Z" fill="#41479B"/>
<path d="M250.24 11.7179L271.041 14.1316C272.788 14.3345 273.923 15.3156 273.576 16.3251L272.88 18.3564C272.533 19.3698 270.827 20.0281 269.072 19.8252L248.264 17.4193C246.513 17.217 245.378 16.2335 245.726 15.2225L246.43 13.1837C246.78 12.1709 248.486 11.5144 250.24 11.7179Z" fill="#464655"/>
<path d="M282.323 15.4327L303.143 17.8264C304.9 18.0286 306.039 19.0181 305.68 20.0318L304.963 22.0614C304.607 23.0685 302.908 23.7199 301.162 23.5194L280.36 21.1306C278.608 20.9295 277.47 19.9466 277.818 18.9347L278.518 16.9006C278.866 15.8887 280.569 15.2314 282.323 15.4327Z" fill="#464655"/>
<path d="M253.2 3.15202L306.114 9.26906C307.865 9.47133 309.001 10.4554 308.651 11.4668L307.942 13.5121C307.592 14.5238 305.887 15.1796 304.135 14.9774L251.216 8.86569C249.464 8.66343 248.328 7.67843 248.679 6.66681L249.393 4.61604C249.745 3.60532 251.448 2.94976 253.2 3.15202Z" fill="#464655"/>
<path d="M256.146 -5.39466L276.989 -2.97736C278.745 -2.77389 279.88 -1.78591 279.521 -0.772791L278.803 1.25764C278.447 2.26537 276.747 2.91705 275 2.71508L254.167 0.31094C252.415 0.108974 251.279 -0.875422 251.629 -1.88675L252.338 -3.93064C252.687 -4.94196 254.392 -5.59813 256.146 -5.39466Z" fill="#464655"/>
<path d="M288.275 -1.6597L309.08 0.750123C310.829 0.952387 311.964 1.93469 311.617 2.94482L310.917 4.97913C310.568 5.99225 308.861 6.64991 307.107 6.44645L286.303 4.03663C284.554 3.83407 283.419 2.85207 283.766 1.84194L284.466 -0.192371C284.814 -1.20519 286.521 -1.86316 288.275 -1.6597Z" fill="#464655"/>
<path d="M212.716 120.028L265.593 126.127C267.345 126.329 268.482 127.312 268.132 128.324L267.428 130.364C267.079 131.376 265.375 132.032 263.622 131.83L210.745 125.732C208.993 125.53 207.856 124.546 208.206 123.535L208.91 121.495C209.259 120.483 210.964 119.826 212.716 120.028Z" fill="#464655"/>
<path d="M209.769 128.581L230.535 130.978C232.285 131.18 233.42 132.162 233.074 133.173L232.377 135.204C232.03 136.216 230.326 136.874 228.572 136.672L207.8 134.282C206.047 134.081 204.91 133.097 205.259 132.086L205.963 130.047C206.312 129.035 208.017 128.379 209.769 128.581Z" fill="#464655"/>
<path d="M241.87 132.293L262.677 134.704C264.426 134.906 265.561 135.889 265.212 136.899L264.512 138.935C264.163 139.948 262.458 140.605 260.704 140.403L239.895 137.997C238.144 137.794 237.009 136.811 237.357 135.8L238.061 133.76C238.41 132.747 240.116 132.091 241.87 132.293Z" fill="#464655"/>
<path d="M206.818 137.134L259.683 143.242C261.433 143.444 262.568 144.426 262.222 145.437L261.521 147.472C261.173 148.485 259.469 149.142 257.715 148.94L204.842 142.842C203.089 142.64 201.953 141.656 202.303 140.644L203.012 138.599C203.362 137.588 205.066 136.932 206.818 137.134Z" fill="#464655"/>
<path d="M163.502 98.4505L152.91 67.9088C152.559 66.8966 153.696 65.9122 155.449 65.7102L158.981 65.3039C160.733 65.1022 162.436 65.7587 162.786 66.7694L173.353 97.3057C173.702 98.315 172.571 99.2967 170.825 99.5016L167.319 99.9134C165.564 100.12 163.853 99.4636 163.502 98.4505Z" fill="#464655"/>
<path d="M148.691 100.16L138.096 69.6128C137.745 68.6006 138.883 67.6156 140.637 67.4143L144.163 67.01C145.913 66.8093 147.614 67.4645 147.964 68.475L158.567 99.0199C158.918 100.032 157.781 101.017 156.027 101.219L152.494 101.625C150.744 101.827 149.041 101.171 148.691 100.16Z" fill="#464655"/>
<path d="M133.899 101.888L123.274 71.3216C122.923 70.309 124.061 69.3234 125.815 69.1221L129.341 68.7178C131.091 68.5171 132.791 69.1717 133.143 70.1816L143.785 100.744C144.137 101.756 143.001 102.741 141.248 102.943L137.705 103.352C135.954 103.554 134.251 102.899 133.899 101.888Z" fill="#464655"/>
</g>
<defs>
<filter id="filter0_ddd_81_36" x="0" y="-53.4525" width="513.825" height="330.469" filterUnits="userSpaceOnUse" color-interpolation-filters="sRGB">
<feFlood flood-opacity="0" result="BackgroundImageFix"/>
<feColorMatrix in="SourceAlpha" type="matrix" values="0 0 0 0 0 0 0 0 0 0 0 0 0 0 0 0 0 0 127 0" result="hardAlpha"/>
<feOffset dy="40"/>
<feGaussianBlur stdDeviation="20"/>
<feComposite in2="hardAlpha" operator="out"/>
<feColorMatrix type="matrix" values="0 0 0 0 1 0 0 0 0 0.294118 0 0 0 0 0.333333 0 0 0 0.25 0"/>
<feBlend mode="normal" in2="BackgroundImageFix" result="effect1_dropShadow_81_36"/>
<feColorMatrix in="SourceAlpha" type="matrix" values="0 0 0 0 0 0 0 0 0 0 0 0 0 0 0 0 0 0 127 0" result="hardAlpha"/>
<feOffset dy="40"/>
<feGaussianBlur stdDeviation="20"/>
<feComposite in2="hardAlpha" operator="out"/>
<feColorMatrix type="matrix" values="0 0 0 0 0.254902 0 0 0 0 0.278431 0 0 0 0 0.607843 0 0 0 0.25 0"/>
<feBlend mode="normal" in2="effect1_dropShadow_81_36" result="effect2_dropShadow_81_36"/>
<feColorMatrix in="SourceAlpha" type="matrix" values="0 0 0 0 0 0 0 0 0 0 0 0 0 0 0 0 0 0 127 0" result="hardAlpha"/>
<feOffset dy="40"/>
<feGaussianBlur stdDeviation="20"/>
<feComposite in2="hardAlpha" operator="out"/>
<feColorMatrix type="matrix" values="0 0 0 0 0.960784 0 0 0 0 0.960784 0 0 0 0 0.960784 0 0 0 0.25 0"/>
<feBlend mode="normal" in2="effect2_dropShadow_81_36" result="effect3_dropShadow_81_36"/>
<feBlend mode="normal" in="SourceGraphic" in2="effect3_dropShadow_81_36" result="shape"/>
</filter>
</defs>
</svg>
