<svg width="323" height="250" viewBox="0 0 323 250" fill="none" xmlns="http://www.w3.org/2000/svg">
<g filter="url(#filter0_d_76_178)">
<path d="M360.609 -21.5432L95.2683 131.652L41.8948 100.836C39.3684 99.3777 39.3684 97.0122 41.8948 95.5535L298.086 -52.3586C300.613 -53.8173 304.71 -53.8173 307.236 -52.3586L360.609 -21.5432Z" fill="#F5F5F5"/>
<path d="M471.93 48.0108L215.739 195.923C213.213 197.381 209.116 197.381 206.589 195.923L153.216 165.108L418.557 11.9131L471.93 42.728C474.457 44.1869 474.457 46.5521 471.93 48.0108Z" fill="#FF4B55"/>
<path d="M360.608 -21.5438L95.2673 131.651L153.212 165.105L418.553 11.9107L360.608 -21.5438Z" fill="#41479B"/>
</g>
<defs>
<filter id="filter0_d_76_178" x="0" y="-53.4526" width="513.825" height="330.469" filterUnits="userSpaceOnUse" color-interpolation-filters="sRGB">
<feFlood flood-opacity="0" result="BackgroundImageFix"/>
<feColorMatrix in="SourceAlpha" type="matrix" values="0 0 0 0 0 0 0 0 0 0 0 0 0 0 0 0 0 0 127 0" result="hardAlpha"/>
<feOffset dy="40"/>
<feGaussianBlur stdDeviation="20"/>
<feComposite in2="hardAlpha" operator="out"/>
<feColorMatrix type="matrix" values="0 0 0 0 0.254902 0 0 0 0 0.278431 0 0 0 0 0.607843 0 0 0 0.25 0"/>
<feBlend mode="normal" in2="BackgroundImageFix" result="effect1_dropShadow_76_178"/>
<feBlend mode="normal" in="SourceGraphic" in2="effect1_dropShadow_76_178" result="shape"/>
</filter>
</defs>
</svg>
