<svg width="473" height="485" viewBox="0 0 473 485" fill="none" xmlns="http://www.w3.org/2000/svg">
<path d="M236.42 0L258.004 147.932L341.637 24.015L296.898 166.662L426.014 91.3037L323.814 200.413L472.84 188.539L333.42 242.5L472.84 296.461L323.814 284.587L426.014 393.696L296.898 318.338L341.637 460.985L258.004 337.068L236.42 485L214.835 337.068L131.203 460.985L175.941 318.338L46.8258 393.696L149.026 284.587L-9.15527e-05 296.461L139.42 242.5L-9.15527e-05 188.539L149.026 200.413L46.8258 91.3037L175.941 166.662L131.203 24.015L214.835 147.932L236.42 0Z" fill="#2563EB"/>
</svg>
